<svg xmlns="http://www.w3.org/2000/svg" xmlns:xlink="http://www.w3.org/1999/xlink" width="500" zoomAndPan="magnify" viewBox="0 0 375 374.999991" height="500" preserveAspectRatio="xMidYMid meet" version="1.0"><rect x="-37.5" width="450" fill="#ffffff" y="-37.499999" height="449.999989" fill-opacity="1"/><rect x="-37.5" width="450" fill="#fefefe" y="-37.499999" height="449.999989" fill-opacity="1"/><path fill="#000000" d="M 79.6875 179.238281 C 77.195312 181.132812 76.6875 185.507812 79.0625 184.636719 C 79.921875 184.320312 80.484375 183.429688 80.3125 182.65625 C 80.140625 181.882812 80.84375 181.25 81.875 181.25 C 84.273438 181.25 84.3125 183.265625 81.933594 184.179688 C 79.949219 184.941406 80.207031 188.210938 82.617188 192.730469 C 84.011719 195.347656 83.960938 195.460938 82.113281 193.9375 C 80.386719 192.515625 79.773438 192.546875 78.179688 194.144531 C 75.355469 196.964844 78.246094 201.742188 83.125 202.316406 C 85.1875 202.558594 87.265625 203.386719 87.75 204.160156 C 88.824219 205.890625 91.1875 200.070312 90.328125 197.8125 C 90 196.953125 90.449219 196.25 91.324219 196.25 C 92.199219 196.25 92.558594 195.890625 92.121094 195.453125 C 91.683594 195.015625 92.46875 193.050781 93.867188 191.085938 C 95.265625 189.125 96.085938 186.996094 95.691406 186.359375 C 95.296875 185.722656 95.890625 184.285156 97.011719 183.167969 C 98.132812 182.046875 98.839844 180.953125 98.585938 180.734375 C 94.585938 177.296875 83.410156 176.414062 79.6875 179.238281 M 143.3125 179.699219 C 142.988281 180.21875 142.332031 182.75 141.847656 185.324219 C 141.09375 189.347656 141.296875 190.015625 143.296875 190.097656 C 145.074219 190.171875 145.179688 190.367188 143.75 190.910156 C 140.640625 192.09375 140.226562 193.820312 142.132812 197.640625 C 144.132812 201.648438 143.25 209.363281 140.953125 207.941406 C 140.152344 207.449219 139.976562 207.703125 140.519531 208.578125 C 141.015625 209.382812 141.882812 209.757812 142.445312 209.410156 C 143.46875 208.777344 145.945312 211.054688 146.144531 212.8125 C 146.332031 214.472656 146.820312 214.371094 150 212.011719 C 152.488281 210.164062 152.613281 209.851562 150.625 210.472656 C 148.191406 211.234375 148.1875 211.207031 150.496094 209.417969 C 151.800781 208.40625 153.359375 207.886719 153.964844 208.257812 C 154.570312 208.632812 154.980469 208.472656 154.882812 207.90625 C 154.785156 207.335938 154.832031 206.59375 154.988281 206.25 C 155.144531 205.90625 155.433594 203.675781 155.628906 201.292969 C 155.824219 198.910156 156.605469 196.757812 157.367188 196.503906 C 158.128906 196.25 158.75 195.246094 158.75 194.269531 C 158.75 193.296875 158.328125 192.640625 157.8125 192.8125 C 157.554688 192.898438 157.300781 192.878906 157.058594 192.757812 C 156.816406 192.636719 156.648438 192.445312 156.5625 192.1875 C 156.390625 191.671875 156.609375 191.296875 157.046875 191.355469 C 158.621094 191.566406 159.929688 188.078125 159.199219 185.625 C 157.753906 180.777344 154.824219 178.75 149.253906 178.75 C 146.308594 178.75 143.632812 179.175781 143.3125 179.699219 M 44.589844 182.25 C 42.871094 184.160156 42.390625 186.402344 42.648438 191.292969 C 42.921875 196.484375 42.515625 198.144531 40.632812 199.523438 C 38.34375 201.199219 38.339844 201.300781 40.578125 202.933594 C 43.019531 204.722656 42.128906 208.152344 39.601562 206.679688 C 38.789062 206.207031 39.195312 207.042969 40.507812 208.535156 C 43.351562 211.78125 44.746094 212.167969 42.410156 209.0625 C 40.890625 207.046875 40.933594 207.03125 42.921875 208.835938 C 44.109375 209.914062 45.339844 213.007812 45.648438 215.710938 C 46.089844 219.539062 45.980469 219.933594 45.15625 217.5 L 44.101562 214.375 L 42.675781 217.894531 C 41.890625 219.828125 41.25 223.042969 41.25 225.039062 C 41.25 228.597656 38.453125 231.273438 34.769531 231.230469 C 33.449219 231.214844 33.457031 231 34.820312 230.136719 C 36.164062 229.285156 36.191406 228.859375 34.945312 228.089844 C 33.296875 227.074219 30 230.5 30 233.230469 C 30 235.191406 24.589844 236.507812 20.625 235.515625 C 18.671875 235.023438 17.5 233.84375 17.5 232.363281 C 17.5 229.722656 13.242188 229.039062 11.757812 231.445312 C 11.171875 232.390625 11.417969 232.546875 12.46875 231.894531 C 13.542969 231.230469 13.871094 231.476562 13.457031 232.640625 C 13.121094 233.59375 13.589844 235.859375 14.507812 237.671875 C 15.421875 239.484375 16.328125 243.226562 16.523438 245.988281 C 16.71875 248.75 17.390625 250.6875 18.023438 250.296875 C 18.65625 249.910156 18.828125 250.488281 18.40625 251.589844 C 17.984375 252.6875 18.3125 253.859375 19.132812 254.195312 C 19.953125 254.53125 19.578125 254.847656 18.300781 254.902344 C 16.460938 254.980469 16.140625 255.648438 16.765625 258.125 C 17.480469 260.984375 16.757812 261.769531 13.6875 261.480469 C 13.308594 261.445312 12.355469 262.441406 11.574219 263.695312 C 10.339844 265.671875 10.511719 265.910156 12.886719 265.476562 C 14.390625 265.199219 14.921875 265.304688 14.0625 265.714844 C 13.203125 266.125 12.5 267.207031 12.5 268.125 C 12.5 269.042969 11.894531 269.992188 11.15625 270.238281 C 10.371094 270.5 10.144531 272.015625 10.609375 273.867188 C 11.328125 276.734375 12.039062 277.058594 17.890625 277.179688 C 21.457031 277.25 25.078125 277.355469 25.9375 277.40625 C 26.796875 277.457031 27.5 278.625 27.5 280 C 27.5 281.765625 26.671875 282.492188 24.6875 282.480469 C 22.464844 282.464844 22.261719 282.21875 23.714844 281.296875 C 27.0625 279.179688 24.054688 278.527344 20.179688 280.53125 C 18.085938 281.613281 15.628906 282.5 14.722656 282.5 C 13.445312 282.5 13.242188 284.285156 13.832031 290.3125 C 14.25 294.609375 15.003906 299.050781 15.507812 300.1875 C 16.011719 301.320312 15.820312 302.617188 15.085938 303.074219 C 12.921875 304.410156 13.535156 305.75 17.035156 307.347656 C 18.84375 308.171875 20.015625 309.148438 19.644531 309.523438 C 19.269531 309.894531 17.929688 309.648438 16.671875 308.976562 C 14.738281 307.941406 14.375 308.222656 14.375 310.75 C 14.375 312.398438 14.910156 313.75 15.5625 313.75 C 16.238281 313.75 16.191406 314.308594 15.449219 315.050781 C 13.933594 316.566406 15.285156 326.648438 18.035156 334.375 C 19.609375 338.792969 20.230469 339.328125 23.347656 338.976562 C 25.289062 338.757812 27.402344 338.0625 28.046875 337.429688 C 29.554688 335.953125 29.09375 325.386719 27.328125 320.960938 C 26.578125 319.082031 26.402344 316.550781 26.9375 315.335938 C 27.472656 314.121094 28 312.84375 28.113281 312.5 C 28.226562 312.15625 28.773438 306.601562 29.332031 300.152344 C 29.953125 292.984375 30.742188 289.136719 31.363281 290.25 C 34.199219 295.3125 36.453125 304.683594 35.875 308.992188 L 35.238281 313.75 L 39.984375 313.75 C 48.144531 313.75 47.757812 320.480469 39.367188 324.460938 C 36.980469 325.597656 35.347656 327.050781 35.746094 327.699219 C 36.175781 328.390625 37.203125 328.265625 38.265625 327.382812 C 40.429688 325.585938 41.839844 326.65625 40.820312 329.320312 C 39.945312 331.597656 35.429688 331.914062 34.707031 329.75 C 34.320312 328.582031 34.003906 328.582031 33.28125 329.75 C 32.769531 330.574219 32.980469 331.25 33.75 331.25 C 34.519531 331.25 34.855469 331.726562 34.496094 332.304688 C 34.140625 332.886719 35.824219 333.96875 38.246094 334.710938 C 41.542969 335.722656 42.753906 335.691406 43.0625 334.59375 C 43.289062 333.785156 44.664062 328.804688 46.117188 323.523438 C 47.574219 318.238281 49.101562 313.039062 49.515625 311.960938 C 50.082031 310.484375 49.449219 310 46.933594 310 C 45.03125 310 43.933594 309.464844 44.375 308.75 C 44.800781 308.058594 43.90625 307.5 42.378906 307.5 C 39.703125 307.5 39.683594 307.421875 41.847656 305.03125 C 43.078125 303.671875 44.570312 302.859375 45.167969 303.230469 C 45.765625 303.597656 46.835938 303.535156 47.554688 303.09375 C 48.269531 302.648438 46.277344 300.578125 43.125 298.488281 C 39.972656 296.402344 37.578125 294.503906 37.804688 294.277344 C 38.300781 293.78125 46.222656 296.476562 48.4375 297.894531 C 49.34375 298.476562 50 298.324219 50 297.535156 C 50 296.105469 49.148438 295.707031 43.316406 294.425781 C 40.269531 293.753906 39.867188 293.195312 40.535156 290.542969 C 41.0625 288.433594 40.730469 287.222656 39.492188 286.746094 C 37.636719 286.035156 37.222656 281.25 39.015625 281.25 C 39.558594 281.25 40 281.761719 40 282.390625 C 40 283.015625 41.296875 283.386719 42.882812 283.214844 C 45.371094 282.941406 45.808594 283.511719 46.066406 287.382812 C 46.234375 289.851562 46.933594 292.433594 47.625 293.121094 C 48.460938 293.960938 48.660156 292.71875 48.222656 289.375 C 47.859375 286.625 47.21875 279.453125 46.796875 273.4375 C 46.371094 267.421875 45.515625 262.5 44.886719 262.5 C 43.167969 262.5 43.535156 258.5625 45.632812 254.546875 C 49.160156 247.78125 48.296875 246.253906 40.9375 246.230469 C 33.671875 246.210938 29.558594 244.667969 33.121094 243.296875 C 34.265625 242.859375 36.53125 242.5 38.152344 242.5 C 39.773438 242.5 41.46875 241.90625 41.921875 241.175781 C 42.371094 240.449219 44.265625 240.1875 46.140625 240.601562 C 49.730469 241.390625 56.269531 237.5 56.230469 234.597656 C 56.21875 233.734375 55.707031 233.902344 55 235 C 53.953125 236.617188 53.785156 236.589844 53.769531 234.777344 C 53.757812 233.621094 54.660156 231.769531 55.769531 230.660156 C 57.628906 228.800781 57.613281 228.445312 55.574219 226.195312 C 54.359375 224.851562 53.75 223.75 54.226562 223.75 C 54.699219 223.75 54.585938 222.765625 53.972656 221.5625 C 53.359375 220.359375 53.199219 216.5625 53.613281 213.125 C 54.300781 207.492188 54.683594 206.875 57.5 206.875 C 59.789062 206.875 60.730469 206.121094 61.023438 204.0625 C 61.265625 202.371094 60.765625 201.242188 59.773438 201.230469 C 58.867188 201.222656 59.53125 200.464844 61.25 199.546875 C 64.003906 198.082031 64.605469 198.164062 66.296875 200.246094 C 68.160156 202.539062 68.296875 202.515625 71.113281 199.519531 C 73.804688 196.65625 73.820312 192.785156 71.132812 194.449219 C 70.476562 194.855469 70.09375 194.511719 70.28125 193.6875 C 70.890625 191.027344 67.738281 191.023438 66.894531 193.679688 C 66.019531 196.441406 64.371094 197.019531 63.125 195 C 62.699219 194.3125 63.230469 193.75 64.300781 193.75 C 65.371094 193.75 66.25 193.203125 66.25 192.539062 C 66.25 191.871094 65.40625 191.652344 64.375 192.046875 C 63.066406 192.550781 62.5 191.957031 62.5 190.089844 C 62.5 187.828125 62.121094 187.613281 60.082031 188.707031 C 56.484375 190.632812 50.039062 190.300781 49.210938 188.148438 C 48.660156 186.710938 47.894531 186.585938 45.8125 187.589844 C 43.296875 188.804688 43.269531 188.769531 45.414062 187.046875 C 46.714844 185.996094 47.523438 184.015625 47.289062 182.453125 L 46.875 179.707031 Z M 328.125 183.242188 C 326.398438 183.941406 326.734375 196.945312 328.535156 199.113281 C 329.339844 200.085938 330.125 202.433594 330.285156 204.335938 C 330.601562 208.175781 332.621094 209.507812 335.9375 208.066406 C 337.140625 207.542969 338.726562 207.0625 339.457031 206.996094 C 341.722656 206.792969 345.136719 202.730469 343.761719 201.882812 C 341.886719 200.722656 342.234375 196.335938 344.375 194.195312 C 346.542969 192.03125 346.941406 182.5 344.867188 182.5 C 344.105469 182.5 343.796875 183.320312 344.179688 184.320312 C 344.726562 185.742188 344.273438 185.917969 342.128906 185.128906 C 338.488281 183.785156 329.703125 182.605469 328.125 183.242188 M 145 186.289062 C 145 186.953125 145.84375 187.5 146.875 187.5 C 147.90625 187.5 148.75 187.277344 148.75 187.007812 C 148.75 186.738281 147.90625 186.195312 146.875 185.796875 C 145.84375 185.402344 145 185.625 145 186.289062 M 179.945312 186.285156 C 178.53125 187.15625 178.640625 187.808594 180.554688 189.921875 C 181.839844 191.339844 183.863281 192.5 185.058594 192.5 C 186.253906 192.5 187.5625 193.355469 187.964844 194.402344 C 188.546875 195.921875 188.226562 196.058594 186.386719 195.074219 C 185.117188 194.394531 183.722656 194.195312 183.289062 194.628906 C 182.183594 195.730469 182.300781 198.792969 183.4375 198.554688 C 183.953125 198.449219 185.78125 198.972656 187.5 199.726562 C 190.519531 201.046875 190.476562 201.09375 186.144531 201.171875 C 183.09375 201.226562 181.667969 201.828125 181.667969 203.070312 C 181.667969 204.070312 182.097656 204.625 182.621094 204.300781 C 183.148438 203.976562 183.929688 204.28125 184.363281 204.980469 C 184.796875 205.679688 184.269531 206.25 183.199219 206.25 C 180.644531 206.25 180.738281 207.082031 183.734375 210.886719 C 185.097656 212.625 185.957031 214.460938 185.644531 214.96875 C 185.328125 215.480469 187.875 215.386719 191.300781 214.765625 C 196.226562 213.867188 198.101562 214.027344 200.242188 215.53125 C 202.242188 216.929688 203.386719 217.070312 204.601562 216.0625 C 205.875 215.007812 206.25 215.273438 206.25 217.246094 C 206.25 218.648438 206.628906 220.785156 207.09375 221.992188 C 207.875 224.035156 208.007812 224.019531 208.894531 221.785156 C 209.800781 219.507812 209.902344 219.53125 210.699219 222.1875 C 211.796875 225.851562 213.703125 225.851562 212.898438 222.1875 C 212.402344 219.925781 212.546875 219.742188 213.621094 221.25 C 214.359375 222.28125 215.015625 224.53125 215.078125 226.25 C 215.144531 227.96875 215.484375 228.667969 215.828125 227.804688 C 216.179688 226.941406 216.96875 226.546875 217.585938 226.929688 C 218.859375 227.714844 217.734375 220.523438 216.078125 217.273438 C 215.488281 216.121094 213.738281 214.980469 212.191406 214.746094 C 210.640625 214.507812 209.480469 213.734375 209.605469 213.023438 C 209.734375 212.316406 207.34375 210.371094 204.292969 208.707031 C 198.410156 205.492188 198.007812 204.609375 200.027344 199.304688 C 201.316406 195.910156 199.929688 192.5 197.257812 192.5 C 196.605469 192.5 196.953125 193.382812 198.035156 194.464844 C 199.117188 195.546875 200 196.671875 200 196.964844 C 200 198.269531 198.335938 197.171875 193.332031 192.558594 C 187.253906 186.957031 182.480469 184.71875 179.945312 186.285156 M 64.710938 187.710938 C 65.4375 188.4375 66.769531 188.785156 67.671875 188.484375 C 68.609375 188.171875 68.039062 187.605469 66.351562 187.164062 C 64.269531 186.621094 63.78125 186.78125 64.710938 187.710938 M 152.1875 187.078125 C 153.046875 187.425781 154.453125 187.425781 155.3125 187.078125 C 156.171875 186.730469 155.46875 186.449219 153.75 186.449219 C 152.03125 186.449219 151.328125 186.730469 152.1875 187.078125 M 215.070312 188.679688 C 213.734375 190.015625 212.34375 192.96875 211.984375 195.242188 C 210.75 203.011719 210.457031 213.75 211.480469 213.75 C 212.039062 213.75 212.503906 213.328125 212.511719 212.8125 C 212.515625 212.296875 213.945312 211.210938 215.691406 210.402344 C 218.601562 209.050781 218.792969 209.140625 218.046875 211.496094 C 216.378906 216.757812 223.710938 217.855469 229.0625 213.144531 C 232.09375 210.476562 232.5 209.234375 232.5 202.617188 C 232.5 195.316406 230.734375 189.070312 228.148438 187.207031 C 225.535156 185.324219 217.523438 186.226562 215.070312 188.679688 M 253.058594 187.609375 C 252.597656 188.355469 252.84375 189.59375 253.609375 190.359375 C 254.375 191.125 254.992188 192.621094 254.980469 193.6875 C 254.964844 195.398438 254.804688 195.40625 253.613281 193.75 C 252.527344 192.242188 252.4375 192.367188 253.148438 194.375 C 255.339844 200.570312 255.3125 201.25 252.871094 201.25 C 249.78125 201.25 243.105469 207.230469 241.914062 211.070312 C 240.914062 214.285156 243.414062 225 245.164062 225 C 246.480469 225 246.589844 223.257812 245.351562 222.015625 C 244.855469 221.523438 244.386719 219.195312 244.304688 216.847656 C 244.171875 212.996094 244.328125 212.789062 245.921875 214.726562 C 246.890625 215.90625 247.328125 216.171875 246.894531 215.3125 C 246.425781 214.390625 246.902344 213.75 248.050781 213.75 C 249.445312 213.75 250 212.503906 250 209.375 C 250 204.847656 251.664062 203.515625 252.992188 206.980469 C 253.410156 208.066406 254.449219 208.726562 255.304688 208.441406 C 256.15625 208.15625 257.433594 209.09375 258.144531 210.523438 C 258.863281 211.972656 260.910156 213.296875 262.769531 213.515625 C 265.710938 213.855469 266.207031 213.375 266.945312 209.453125 C 267.871094 204.5 267.789062 204.539062 273.445312 206.164062 C 275.675781 206.800781 277.5 206.890625 277.5 206.355469 C 277.5 204.683594 273.023438 201.25 270.839844 201.25 C 268.492188 201.25 267.859375 195.699219 270.050781 194.34375 C 271.546875 193.417969 270.335938 188.570312 268.269531 187.207031 C 266.09375 185.773438 253.996094 186.09375 253.058594 187.609375 M 296.558594 189.632812 C 295.011719 189.929688 293.164062 191.261719 292.453125 192.585938 C 291.742188 193.914062 290.117188 195 288.84375 195 C 287.570312 195 285.328125 195.984375 283.863281 197.1875 C 281.078125 199.472656 279.28125 205 281.320312 205 C 281.96875 205 282.5 203.875 282.5 202.5 C 282.5 200.863281 283.332031 200 284.910156 200 C 287.671875 200 291.25 203.144531 291.25 205.570312 C 291.25 206.46875 292.421875 207.515625 293.847656 207.886719 C 295.730469 208.378906 296.328125 209.371094 296.007812 211.472656 C 295.746094 213.199219 294.84375 214.214844 293.789062 213.980469 C 288.585938 212.828125 284.8125 218.546875 287 224.253906 C 287.636719 225.914062 288.132812 225.785156 290.222656 223.421875 L 292.691406 220.625 L 292.058594 223.550781 C 291.445312 226.375 291.511719 226.402344 293.84375 224.289062 C 295.175781 223.085938 296.636719 222.46875 297.089844 222.921875 C 297.546875 223.378906 297.167969 223.75 296.25 223.75 C 295.332031 223.75 294.945312 224.109375 295.386719 224.554688 C 295.828125 224.996094 296.996094 224.6875 297.980469 223.871094 C 299.453125 222.648438 300.03125 223.21875 301.273438 227.128906 C 302.101562 229.738281 304.109375 234.207031 305.742188 237.0625 C 308.878906 242.550781 308.308594 243.75 302.554688 243.75 C 301.324219 243.75 297.710938 245.203125 294.53125 246.980469 C 290.386719 249.296875 288.707031 249.742188 288.601562 248.542969 C 288.519531 247.625 288.066406 248.5625 287.59375 250.625 C 287.117188 252.6875 287.148438 255.933594 287.660156 257.835938 C 288.171875 259.738281 288.105469 260.996094 287.511719 260.632812 C 286.496094 260.003906 284.277344 264.75 285.199219 265.566406 C 285.433594 265.773438 288.4375 267.398438 291.875 269.171875 L 298.125 272.402344 L 292.351562 271.679688 C 288.578125 271.207031 286.265625 271.460938 285.675781 272.417969 C 285.070312 273.394531 285.742188 273.796875 287.699219 273.621094 C 293.039062 273.148438 296.40625 273.734375 295.625 275 C 295.199219 275.6875 295.449219 276.25 296.175781 276.25 C 298.242188 276.25 297.730469 278.921875 295.3125 280.761719 C 293.351562 282.25 293.335938 282.425781 295.179688 282.460938 C 298.011719 282.515625 299.328125 286.242188 296.523438 286.269531 C 294.679688 286.285156 294.640625 286.460938 296.25 287.5 C 297.867188 288.542969 297.832031 288.714844 296.011719 288.730469 C 294.847656 288.742188 293.511719 289.371094 293.042969 290.132812 C 292.460938 291.074219 293.140625 291.253906 295.15625 290.699219 C 297.84375 289.957031 297.898438 290.019531 295.75 291.355469 C 293.464844 292.777344 293.488281 292.921875 296.375 295.140625 C 298.710938 296.933594 298.914062 297.449219 297.292969 297.472656 C 296.144531 297.488281 294.945312 296.796875 294.625 295.9375 C 294.253906 294.941406 293.675781 295.277344 293.035156 296.875 C 290.917969 302.136719 285 304.382812 285 299.925781 C 285 298.28125 284.472656 297.675781 283.539062 298.257812 C 282.515625 298.890625 282.355469 298.441406 283 296.765625 C 284.933594 291.765625 285.4375 287.082031 283.945312 288.003906 C 282.976562 288.605469 282.53125 287.742188 282.597656 285.386719 C 282.652344 283.453125 282.980469 282.578125 283.328125 283.4375 C 284.207031 285.613281 286.25 285.394531 286.25 283.125 C 286.25 282.09375 285.445312 281.25 284.457031 281.25 C 280.734375 281.25 279.824219 271.871094 283.289062 269.183594 C 284.507812 268.238281 284.691406 267.457031 283.824219 266.921875 C 283.097656 266.472656 282.5 264.226562 282.5 261.933594 C 282.5 257.78125 279.519531 254.90625 278.300781 257.882812 C 277.859375 258.960938 277.339844 258.871094 276.425781 257.558594 C 274.757812 255.160156 275.914062 253.476562 278.636719 254.339844 C 281.445312 255.230469 284.519531 249.882812 283.054688 246.644531 C 282.492188 245.398438 281.996094 243.261719 281.953125 241.898438 C 281.871094 239.339844 277.5 237.457031 277.5 239.984375 C 277.5 240.761719 278.148438 240.996094 278.945312 240.507812 C 279.855469 239.941406 280.046875 240.164062 279.460938 241.109375 C 278.953125 241.933594 279.121094 243.316406 279.839844 244.183594 C 281.78125 246.519531 280.132812 251.453125 277.65625 250.714844 C 276.539062 250.382812 273.675781 250.527344 271.292969 251.035156 C 267.71875 251.796875 266.816406 252.65625 266.148438 255.929688 C 265.703125 258.117188 265.683594 260.113281 266.105469 260.371094 C 266.527344 260.628906 266.03125 260.578125 265 260.257812 C 261.761719 259.25 253.257812 259.078125 250 259.949219 C 247.1875 260.703125 247.375 260.871094 251.875 261.640625 C 258.328125 262.746094 260.351562 264.121094 259.796875 267.011719 C 259.363281 269.257812 259.25 269.253906 256.847656 266.859375 C 253.738281 263.765625 247.5 262.785156 247.5 265.390625 C 247.5 266.390625 248.625 267.503906 250 267.863281 C 251.375 268.222656 252.5 269.191406 252.5 270.015625 C 252.5 270.949219 251.671875 271.183594 250.3125 270.636719 C 249.109375 270.152344 247.4375 269.640625 246.597656 269.5 C 244.695312 269.175781 242.921875 267.5 244.480469 267.496094 C 245.109375 267.496094 245.742188 264.875 245.886719 261.675781 C 246.089844 257.125 245.816406 256.183594 244.636719 257.363281 C 243.664062 258.335938 242.925781 264.964844 242.570312 276 C 241.714844 302.433594 241.875 306.335938 243.855469 307.609375 C 245.222656 308.488281 245.273438 308.976562 244.089844 309.746094 C 242.914062 310.503906 242.832031 313.207031 243.742188 321.167969 C 244.394531 326.902344 245.207031 331.875 245.550781 332.214844 C 245.890625 332.558594 248.15625 333.054688 250.585938 333.324219 C 254.605469 333.765625 255 333.527344 255 330.636719 C 255 328.894531 255.699219 326.347656 256.550781 324.984375 C 257.714844 323.121094 257.75 321.9375 256.699219 320.253906 C 255.609375 318.507812 255.804688 317.054688 257.597656 313.691406 C 259.3125 310.46875 259.941406 306.371094 260.074219 297.5 C 260.171875 290.96875 260.65625 284.21875 261.152344 282.5 C 262.03125 279.46875 262.085938 279.453125 262.941406 282.035156 C 263.425781 283.5 263.890625 288 263.96875 292.035156 C 264.050781 296.074219 264.664062 300.074219 265.328125 300.929688 C 265.996094 301.785156 266.273438 303.894531 265.945312 305.617188 C 265.617188 307.339844 266.09375 309.734375 267.007812 310.9375 C 267.921875 312.140625 268.6875 315.234375 268.710938 317.8125 C 268.734375 320.601562 269.359375 322.5 270.25 322.5 C 271.417969 322.5 271.417969 322.832031 270.25 324 C 268.515625 325.734375 268.335938 328.664062 269.820312 331.003906 C 271.171875 333.132812 278.429688 334.03125 279.554688 332.207031 C 280.765625 330.25 281.21875 316.25 280.074219 316.25 C 278.644531 316.25 280.453125 307.140625 281.984375 306.628906 C 282.726562 306.382812 283.40625 306.898438 283.5 307.777344 C 283.820312 310.859375 289.410156 330.640625 290.398438 332.1875 C 290.949219 333.046875 292.992188 333.75 294.941406 333.75 C 296.890625 333.75 298.75 333.046875 299.074219 332.1875 C 299.96875 329.824219 298.933594 313.859375 297.75 311.738281 C 296.699219 309.863281 301.28125 286.664062 303.324219 283.5 C 304.3125 281.972656 305.328125 288.976562 306.773438 307.273438 C 307.0625 310.929688 307.609375 314.734375 307.988281 315.722656 C 308.367188 316.710938 308.148438 318.921875 307.496094 320.636719 C 306.632812 322.902344 306.730469 323.753906 307.84375 323.769531 C 308.90625 323.78125 308.957031 324.070312 308.003906 324.707031 C 305.667969 326.273438 304.929688 331.925781 306.738281 334.398438 C 307.667969 335.667969 309.859375 336.898438 311.617188 337.132812 C 314.0625 337.460938 315.003906 336.894531 315.628906 334.71875 C 316.078125 333.152344 317.179688 330.1875 318.074219 328.125 C 319.003906 325.976562 319.988281 316.984375 320.375 307.082031 C 320.917969 293.148438 321.464844 289.332031 323.199219 287.421875 C 324.90625 285.53125 325.035156 284.675781 323.835938 283.230469 C 322.6875 281.847656 322.671875 280.765625 323.757812 278.734375 C 324.628906 277.109375 324.953125 272.78125 324.578125 267.714844 C 323.878906 258.191406 322.757812 253.835938 320.398438 251.472656 C 319.492188 250.566406 318.75 248.171875 318.75 246.160156 C 318.75 244.148438 318.1875 242.5 317.5 242.5 C 315.605469 242.5 315.992188 239.785156 318.617188 234.632812 C 321.167969 229.632812 320.609375 228.535156 315.230469 227.960938 C 311.738281 227.589844 308.164062 224.632812 305.261719 219.722656 C 304.132812 217.8125 302.207031 216.25 300.980469 216.25 C 299.753906 216.25 298.75 215.6875 298.75 215 C 298.75 214.3125 299.796875 213.75 301.082031 213.75 C 304.433594 213.75 310.285156 208.800781 309.464844 206.660156 C 309.085938 205.675781 309.667969 203.511719 310.757812 201.851562 C 312.1875 199.667969 312.496094 197.433594 311.882812 193.792969 L 311.03125 188.75 L 305.203125 188.921875 C 301.996094 189.015625 298.109375 189.335938 296.558594 189.632812 M 106.300781 194.320312 C 104.050781 196.714844 103.585938 198.253906 104.199219 201.296875 C 104.625 203.445312 104.375 206.328125 103.640625 207.703125 C 102.347656 210.121094 102.234375 210.128906 100.433594 207.917969 C 99.40625 206.65625 98.921875 206.328125 99.355469 207.1875 C 99.855469 208.171875 99.25 208.75 97.71875 208.75 C 96.382812 208.75 94.304688 210.25 93.105469 212.082031 C 91.015625 215.269531 91.019531 215.492188 93.199219 217.082031 C 96.199219 219.277344 98.65625 219.195312 99.546875 216.875 C 99.945312 215.84375 101.082031 215 102.082031 215 C 103.082031 215 103.554688 214.445312 103.132812 213.765625 C 102.25 212.335938 104.617188 213.015625 112.019531 216.3125 C 114.847656 217.574219 118.300781 218.304688 119.691406 217.945312 C 121.078125 217.582031 122.597656 217.894531 123.058594 218.640625 C 125.070312 221.898438 126.117188 219.601562 124.445312 215.597656 C 123.226562 212.679688 122.753906 208.25 123.050781 202.496094 L 123.5 193.796875 L 118.9375 192.53125 C 112 190.605469 109.453125 190.964844 106.300781 194.320312 M 221.25 192.5 C 221.25 193.1875 221.8125 193.75 222.5 193.75 C 223.1875 193.75 223.75 193.1875 223.75 192.5 C 223.75 191.8125 223.1875 191.25 222.5 191.25 C 221.8125 191.25 221.25 191.8125 221.25 192.5 M 148.515625 194.605469 C 149.417969 194.964844 150.496094 194.921875 150.910156 194.503906 C 151.328125 194.089844 150.589844 193.796875 149.269531 193.847656 C 147.816406 193.910156 147.519531 194.203125 148.515625 194.605469 M 214.902344 196.5625 C 214.851562 196.734375 214.617188 197.890625 214.378906 199.132812 C 214.035156 200.945312 214.296875 201.101562 215.710938 199.929688 C 216.679688 199.125 217.164062 197.96875 216.789062 197.359375 C 216.140625 196.3125 215.113281 195.878906 214.902344 196.5625 M 227.519531 197.113281 C 227.53125 197.671875 228.082031 198.96875 228.75 200 C 229.792969 201.617188 229.964844 201.582031 229.980469 199.761719 C 229.992188 198.597656 229.4375 197.300781 228.75 196.875 C 228.0625 196.449219 227.507812 196.558594 227.519531 197.113281 M 261.25 200 C 260.125 200.726562 259.96875 201.21875 260.863281 201.230469 C 261.683594 201.242188 262.699219 200.6875 263.125 200 C 264.082031 198.449219 263.652344 198.449219 261.25 200 M 133.265625 202.34375 C 131.320312 204.492188 131.3125 204.757812 133.171875 205.46875 C 139.164062 207.769531 143.4375 205.1875 139.75 201.5 C 137.632812 199.382812 135.71875 199.632812 133.265625 202.34375 M 221.875 201.25 C 221.449219 201.9375 222.011719 202.5 223.125 202.5 C 224.238281 202.5 224.800781 201.9375 224.375 201.25 C 223.949219 200.5625 223.386719 200 223.125 200 C 222.863281 200 222.300781 200.5625 221.875 201.25 M 115 206.25 C 115 206.9375 116.265625 207.492188 117.8125 207.480469 C 120.085938 207.464844 120.265625 207.230469 118.75 206.25 C 116.328125 204.683594 115 204.683594 115 206.25 M 80.839844 210.207031 C 80.386719 212.027344 79.667969 214.414062 79.246094 215.507812 C 78.828125 216.605469 79.105469 217.5 79.867188 217.5 C 80.628906 217.5 81.25 216.65625 81.25 215.625 C 81.25 214.59375 81.8125 213.75 82.5 213.75 C 83.660156 213.75 84.289062 216.800781 84.039062 221.25 C 83.960938 222.621094 84.414062 222.472656 85.71875 220.699219 C 86.699219 219.363281 87.492188 217.394531 87.480469 216.324219 C 87.464844 214.609375 87.316406 214.601562 86.25 216.25 C 85.523438 217.375 85.03125 217.53125 85.019531 216.636719 C 85.007812 215.816406 85.5625 214.800781 86.25 214.375 C 86.9375 213.949219 87.453125 212.933594 87.402344 212.113281 C 87.328125 211.027344 87.132812 211.046875 86.675781 212.175781 C 85.949219 213.972656 83.355469 211.9375 82.289062 208.738281 C 81.886719 207.535156 81.382812 208.046875 80.839844 210.207031 M 72.539062 213.050781 C 72.503906 217.675781 72.613281 217.828125 74.378906 215.550781 C 75.945312 213.527344 76.128906 213.488281 75.492188 215.3125 C 75.066406 216.539062 75.339844 217.5 76.117188 217.5 C 76.878906 217.5 77.5 216.058594 77.5 214.300781 C 77.5 212.542969 76.972656 211.429688 76.328125 211.828125 C 75.679688 212.226562 74.574219 211.554688 73.863281 210.339844 C 72.820312 208.546875 72.570312 209.058594 72.539062 213.050781 M 120.199219 213.75 C 120.199219 215.46875 120.480469 216.171875 120.828125 215.3125 C 121.175781 214.453125 121.175781 213.046875 120.828125 212.1875 C 120.480469 211.328125 120.199219 212.03125 120.199219 213.75 M 60.8125 214.339844 C 59.96875 216.539062 62.285156 223.75 63.832031 223.75 C 64.429688 223.75 64.578125 222.851562 64.152344 221.75 C 63.730469 220.648438 63.957031 219.382812 64.660156 218.9375 C 65.441406 218.441406 65.527344 217.03125 64.882812 215.3125 C 63.675781 212.089844 61.84375 211.652344 60.8125 214.339844 M 88.984375 216.5625 C 89.363281 220.511719 91.296875 221.734375 92.320312 218.671875 C 92.636719 217.714844 92.234375 217.515625 91.230469 218.136719 C 90.046875 218.871094 89.796875 218.277344 90.269531 215.8125 C 90.617188 213.988281 90.382812 212.5 89.746094 212.5 C 89.109375 212.5 88.765625 214.328125 88.984375 216.5625 M 335.597656 214.238281 C 333.578125 215.71875 333.46875 216.28125 334.886719 217.988281 C 336.296875 219.683594 336.261719 220 334.671875 220 C 333.640625 220 332.386719 218.734375 331.890625 217.1875 C 331.144531 214.878906 330.882812 214.753906 330.414062 216.496094 C 330.097656 217.664062 330.5 219.851562 331.304688 221.355469 C 332.488281 223.5625 333 223.753906 333.964844 222.355469 C 334.800781 221.152344 334.910156 221.574219 334.332031 223.75 C 333.871094 225.46875 332.726562 227.488281 331.78125 228.238281 C 330.328125 229.390625 330.359375 229.980469 331.96875 231.988281 C 333.832031 234.316406 333.863281 234.3125 333.191406 231.828125 C 332.671875 229.917969 333.125 229.234375 335 229.09375 C 336.429688 228.984375 337.5 229.675781 337.5 230.703125 C 337.5 232.59375 339 233.082031 340.425781 231.65625 C 340.890625 231.191406 340.15625 229.625 338.796875 228.171875 C 336.648438 225.890625 336.453125 224.65625 337.347656 219.015625 C 337.914062 215.433594 338.289062 212.5 338.175781 212.5 C 338.066406 212.5 336.90625 213.28125 335.597656 214.238281 M 339.238281 215.714844 C 338.367188 219.1875 340.183594 222.054688 342.390625 220.691406 C 344.441406 219.425781 344.019531 217.476562 341.875 218.296875 C 340.84375 218.695312 340 218.378906 340 217.59375 C 340 216.8125 340.84375 215.847656 341.875 215.453125 C 344.289062 214.523438 344.304688 212.5 341.898438 212.5 C 340.882812 212.5 339.683594 213.949219 339.238281 215.714844 M 169.507812 215.726562 C 168.417969 218.570312 168.570312 236.25 169.6875 236.246094 C 170.203125 236.242188 170.625 231.179688 170.625 224.996094 C 170.625 218.808594 170.546875 213.75 170.445312 213.75 C 170.347656 213.75 169.925781 214.640625 169.507812 215.726562 M 155.832031 217.082031 C 154.523438 218.390625 154.859375 222.265625 156.359375 223.191406 C 157.105469 223.652344 158.371094 223.324219 159.171875 222.457031 C 160.308594 221.226562 160.148438 221.050781 158.4375 221.652344 C 156.996094 222.160156 156.25 221.792969 156.25 220.585938 C 156.25 219.578125 156.8125 218.75 157.5 218.75 C 158.1875 218.75 158.75 218.1875 158.75 217.5 C 158.75 216.078125 157.078125 215.839844 155.832031 217.082031 M 281.949219 218.128906 C 284.335938 219.976562 284.335938 219.992188 281.875 219.144531 C 279.574219 218.351562 279.523438 218.46875 281.25 220.632812 C 282.28125 221.921875 282.535156 222.628906 281.816406 222.199219 C 281.09375 221.765625 279.6875 221.929688 278.691406 222.5625 C 277.171875 223.523438 277.222656 223.714844 279 223.730469 C 280.167969 223.742188 281.699219 224.734375 282.398438 225.9375 C 283.808594 228.355469 283.902344 228.25 284.445312 223.75 C 284.996094 219.183594 283.863281 216.25 281.550781 216.25 C 279.855469 216.25 279.921875 216.558594 281.949219 218.128906 M 327.6875 217.261719 C 327.582031 218.160156 326.9375 218.550781 326.25 218.125 C 324.683594 217.15625 324.648438 220.011719 326.203125 222.464844 C 327.859375 225.085938 329.03125 223.34375 328.40625 219.175781 C 328.113281 217.222656 327.789062 216.359375 327.6875 217.261719 M 351.25 218.199219 C 351.25 219.269531 351.820312 219.792969 352.519531 219.363281 C 353.21875 218.929688 353.46875 218.054688 353.070312 217.414062 C 352 215.679688 351.25 216.003906 351.25 218.199219 M 56.539062 220 C 55.679688 221.375 55.410156 222.5 55.9375 222.5 C 56.464844 222.5 57.601562 221.375 58.460938 220 C 59.320312 218.625 59.589844 217.5 59.0625 217.5 C 58.535156 217.5 57.398438 218.625 56.539062 220 M 133.75 219.457031 C 133.75 219.847656 134.332031 221.253906 135.042969 222.582031 C 136.953125 226.148438 138.757812 225.527344 137.070312 221.886719 C 135.777344 219.097656 133.75 217.613281 133.75 219.457031 M 80 221.25 C 80 221.9375 80.5625 222.5 81.25 222.5 C 81.9375 222.5 82.5 221.9375 82.5 221.25 C 82.5 220.5625 81.9375 220 81.25 220 C 80.5625 220 80 220.5625 80 221.25 M 322.699219 222.5 C 322.699219 224.21875 322.980469 224.921875 323.328125 224.0625 C 323.675781 223.203125 323.675781 221.796875 323.328125 220.9375 C 322.980469 220.078125 322.699219 220.78125 322.699219 222.5 M 250.019531 225.3125 C 250.035156 228.394531 250.328125 228.921875 251.25 227.5 C 252.058594 226.25 252.46875 226.144531 252.480469 227.1875 C 252.492188 228.046875 253.0625 228.75 253.75 228.75 C 254.4375 228.75 255 227.90625 255 226.875 C 255 225.84375 254.4375 225 253.75 225 C 253.0625 225 252.5 224.15625 252.5 223.125 C 252.5 222.09375 251.9375 221.25 251.25 221.25 C 250.5625 221.25 250.007812 223.078125 250.019531 225.3125 M 267.953125 223.125 C 267.554688 224.15625 267.554688 225.84375 267.953125 226.875 C 268.75 228.957031 272.5 229.472656 272.5 227.5 C 272.5 226.8125 271.65625 226.25 270.625 226.25 C 269.59375 226.25 268.75 225.6875 268.75 225 C 268.75 224.3125 269.59375 223.75 270.625 223.75 C 271.65625 223.75 272.5 223.1875 272.5 222.5 C 272.5 220.527344 268.75 221.042969 267.953125 223.125 M 356.5625 223.789062 C 353.234375 225.128906 353.28125 224.675781 355.554688 233.570312 C 357.636719 241.710938 356.691406 248.980469 353.484375 249.453125 C 352.335938 249.617188 349.539062 250.324219 347.261719 251.015625 C 340.859375 252.960938 333.597656 253.757812 334.421875 252.425781 C 335.261719 251.066406 333.613281 250.902344 330.621094 252.046875 C 329.074219 252.640625 328.9375 253.09375 330.089844 253.804688 C 331.148438 254.460938 331.550781 257.796875 331.363281 264.300781 C 331.140625 271.90625 331.84375 276.300781 334.828125 285.984375 C 336.886719 292.660156 338.953125 300.375 339.421875 303.125 C 339.890625 305.875 341.921875 310.230469 343.9375 312.800781 C 346.699219 316.328125 347.3125 318.019531 346.4375 319.675781 C 345.644531 321.171875 345.929688 323.472656 347.324219 326.875 C 349.261719 331.601562 349.695312 331.894531 355.210938 332.238281 C 361.621094 332.640625 361.617188 332.648438 363.113281 322.984375 C 363.714844 319.101562 363.410156 317.339844 361.867188 315.796875 C 360.742188 314.671875 360.304688 313.75 360.890625 313.75 C 361.480469 313.75 362.050781 312.765625 362.15625 311.5625 C 363.304688 298.542969 364.269531 292.671875 365.167969 293.230469 C 365.765625 293.597656 366.25 293.363281 366.25 292.707031 C 366.25 292.050781 365.457031 291.214844 364.488281 290.839844 C 363.078125 290.300781 362.972656 289.09375 363.964844 284.769531 C 364.644531 281.800781 364.925781 277.265625 364.59375 274.6875 C 364.261719 272.109375 364.355469 270.222656 364.804688 270.496094 C 365.257812 270.769531 365.753906 268.800781 365.910156 266.121094 C 366.21875 260.777344 366.078125 260.648438 362.105469 262.570312 C 359.382812 263.886719 359.382812 263.886719 362.179688 261.4375 C 364.332031 259.558594 364.816406 258.136719 364.253906 255.335938 C 363.851562 253.328125 364.359375 248.867188 365.382812 245.425781 C 366.695312 241.003906 366.9375 237.546875 366.203125 233.648438 C 365.632812 230.609375 365.472656 226.859375 365.84375 225.3125 C 366.429688 222.882812 366.035156 222.511719 362.949219 222.578125 C 360.984375 222.621094 358.109375 223.167969 356.5625 223.789062 M 228.847656 225.730469 C 228.910156 227.183594 229.203125 227.480469 229.605469 226.484375 C 229.964844 225.582031 229.921875 224.503906 229.503906 224.089844 C 229.089844 223.671875 228.796875 224.410156 228.847656 225.730469 M 110.261719 227.273438 C 110.460938 228.292969 111.925781 229.328125 113.515625 229.566406 C 115.332031 229.84375 116.09375 229.511719 115.574219 228.667969 C 115.121094 227.933594 113.882812 227.664062 112.820312 228.070312 C 111.320312 228.644531 111.203125 228.4375 112.304688 227.113281 C 113.382812 225.8125 113.265625 225.417969 111.804688 225.417969 C 110.753906 225.417969 110.0625 226.25 110.261719 227.273438 M 263.296875 226.875 C 262.859375 228.015625 263.296875 228.75 264.414062 228.75 C 265.421875 228.75 266.25 227.90625 266.25 226.875 C 266.25 225.84375 265.746094 225 265.132812 225 C 264.519531 225 263.695312 225.84375 263.296875 226.875 M 53.125 227.5 C 53.550781 228.1875 54.460938 228.75 55.148438 228.75 C 55.835938 228.75 56.050781 228.1875 55.625 227.5 C 55.199219 226.8125 54.289062 226.25 53.601562 226.25 C 52.914062 226.25 52.699219 226.8125 53.125 227.5 M 81.25 228.824219 C 81.25 229.550781 81.8125 229.800781 82.5 229.375 C 83.1875 228.949219 83.75 228.355469 83.75 228.050781 C 83.75 227.746094 83.1875 227.5 82.5 227.5 C 81.8125 227.5 81.25 228.097656 81.25 228.824219 M 145 229.375 C 145 230.40625 145.5625 231.25 146.25 231.25 C 146.9375 231.25 147.5 230.40625 147.5 229.375 C 147.5 228.34375 146.9375 227.5 146.25 227.5 C 145.5625 227.5 145 228.34375 145 229.375 M 190.097656 229.480469 C 190.160156 230.933594 190.453125 231.230469 190.855469 230.234375 C 191.214844 229.332031 191.171875 228.253906 190.753906 227.839844 C 190.339844 227.421875 190.046875 228.160156 190.097656 229.480469 M 48.75 230.714844 C 48.75 232.058594 47.519531 233.710938 46.019531 234.390625 C 44.515625 235.070312 43.0625 236.328125 42.789062 237.1875 C 41.949219 239.824219 46.898438 238.929688 49.691406 235.9375 C 52.027344 233.4375 52.121094 232.855469 50.535156 230.699219 C 48.769531 228.296875 48.75 228.296875 48.75 230.714844 M 292.5 230.367188 C 292.5 231.425781 293.203125 232.574219 294.0625 232.921875 C 295.039062 233.316406 294.839844 233.589844 293.542969 233.652344 C 292.394531 233.703125 291.175781 233.046875 290.828125 232.1875 C 290.480469 231.328125 290.152344 232.140625 290.097656 233.988281 C 290.046875 235.839844 290.65625 237.757812 291.460938 238.257812 C 292.445312 238.863281 292.664062 238.480469 292.125 237.078125 C 291.6875 235.9375 291.875 235 292.539062 235 C 293.203125 235 293.75 236.160156 293.75 237.574219 C 293.75 238.988281 294.289062 239.816406 294.945312 239.410156 C 295.601562 239.003906 295.777344 237.703125 295.335938 236.523438 C 294.617188 234.605469 294.769531 234.570312 296.761719 236.191406 C 298.792969 237.84375 298.953125 237.746094 298.558594 235.082031 C 298.03125 231.527344 292.5 227.222656 292.5 230.367188 M 148.75 231.175781 C 148.75 231.824219 149.3125 232.699219 150 233.125 C 150.6875 233.550781 151.25 233.019531 151.25 231.949219 C 151.25 230.878906 150.6875 230 150 230 C 149.3125 230 148.75 230.527344 148.75 231.175781 M 171.824219 231.332031 C 171.371094 232.066406 171.265625 232.933594 171.59375 233.261719 C 171.921875 233.589844 172.523438 232.988281 172.929688 231.929688 C 173.777344 229.726562 173.054688 229.339844 171.824219 231.332031 M 221.46875 232.617188 C 220.566406 234.0625 220.007812 235.355469 220.226562 235.492188 C 220.445312 235.632812 222.171875 236.410156 224.0625 237.21875 C 228.191406 238.992188 228.675781 237.226562 225.277344 232.808594 L 223.109375 229.992188 Z M 182.953125 233.125 C 182.554688 234.15625 181.449219 235 180.492188 235 C 175.453125 235 182.125 241.136719 187.464844 241.414062 C 190.007812 241.546875 189.769531 241.757812 186.25 242.5 C 182.082031 243.378906 182.707031 243.714844 189.375 244.195312 C 191.375 244.339844 191.894531 245.308594 191.980469 249.042969 C 192.054688 252.261719 191.664062 253.363281 190.730469 252.589844 C 189.984375 251.976562 187.6875 251.28125 185.625 251.046875 C 182.589844 250.707031 181.800781 249.96875 181.480469 247.1875 C 181.132812 244.179688 180.546875 243.75 176.792969 243.75 C 174.429688 243.75 172.566406 243.328125 172.648438 242.8125 C 173.160156 239.558594 172.417969 239.023438 169.347656 240.429688 C 165.171875 242.339844 165.730469 246.421875 170.386719 248.054688 C 173.105469 249.007812 174.160156 248.871094 175.054688 247.453125 C 175.765625 246.332031 176.21875 246.199219 176.230469 247.113281 C 176.242188 247.933594 175.679688 248.957031 174.980469 249.386719 C 174.28125 249.820312 174.085938 250.785156 174.546875 251.53125 C 175.023438 252.300781 174.808594 252.53125 174.050781 252.058594 C 172.214844 250.925781 171.335938 253.886719 172.710938 256.5625 C 173.925781 258.917969 178.75 259.609375 178.75 257.425781 C 178.75 256.699219 179.34375 256.46875 180.066406 256.917969 C 180.789062 257.363281 181.175781 258.34375 180.925781 259.097656 C 179.4375 263.558594 190.5 266.828125 196.398438 263.671875 C 197.765625 262.941406 199.835938 262.570312 201.003906 262.847656 C 202.601562 263.230469 202.203125 263.777344 199.375 265.066406 C 193.882812 267.570312 170 267.851562 170 265.410156 C 170 264.417969 170.5625 263.949219 171.25 264.375 C 171.9375 264.800781 172.5 264.542969 172.5 263.808594 C 172.5 262.953125 174.148438 263.15625 177.027344 264.359375 C 182.875 266.800781 183.332031 266.742188 180.742188 263.882812 C 177.976562 260.824219 172.535156 259.789062 170.40625 261.917969 C 169.496094 262.828125 168.75 266.097656 168.75 269.179688 C 168.75 272.5 168.109375 275.046875 167.1875 275.421875 C 165.9375 275.925781 165.9375 276.074219 167.1875 276.152344 C 168.046875 276.203125 168.75 277.414062 168.75 278.832031 C 168.75 280.941406 168.230469 281.257812 165.9375 280.546875 C 164.390625 280.066406 162.675781 278.902344 162.125 277.960938 C 161.574219 277.019531 160.167969 276.242188 159 276.230469 C 157.160156 276.214844 157.125 276.035156 158.75 274.898438 C 160.230469 273.863281 160.035156 273.734375 157.8125 274.292969 C 148.957031 276.519531 149.109375 276.515625 152.5 274.472656 L 155.625 272.589844 L 152.5 272.441406 C 149.722656 272.3125 149.929688 272.027344 154.375 269.84375 L 159.375 267.390625 L 153.75 268.144531 C 149.652344 268.695312 148.632812 268.542969 150 267.59375 C 151.613281 266.46875 151.574219 266.285156 149.6875 266.269531 C 148.484375 266.257812 147.5 265.722656 147.5 265.078125 C 147.5 264.433594 145.53125 264.226562 143.125 264.617188 C 140.179688 265.09375 138.75 264.839844 138.75 263.839844 C 138.75 263.019531 139.3125 262.699219 140 263.125 C 140.6875 263.550781 141.25 263 141.25 261.90625 C 141.25 260.300781 141.734375 260.171875 143.75 261.25 C 145.925781 262.414062 146.25 262.199219 146.25 259.582031 C 146.25 257.089844 147.03125 256.449219 150.832031 255.832031 C 154.316406 255.265625 155.789062 255.601562 156.980469 257.230469 C 157.839844 258.40625 158.964844 258.953125 159.472656 258.445312 C 159.984375 257.933594 159.378906 256.386719 158.128906 255.003906 C 155.882812 252.519531 155.902344 252.507812 159.820312 253.875 C 164.734375 255.585938 167.5 254.632812 167.5 251.214844 C 167.5 249.777344 167.042969 248.886719 166.484375 249.230469 C 165.929688 249.574219 158.953125 250.160156 150.988281 250.527344 L 136.507812 251.203125 L 135.542969 247.789062 C 134.199219 243.027344 134.082031 242.601562 133.90625 241.722656 C 133.820312 241.292969 132.929688 241.625 131.925781 242.457031 C 130.453125 243.679688 129.511719 243.375 126.992188 240.855469 L 123.878906 237.742188 L 122.664062 241.058594 C 121.640625 243.847656 121.40625 243.976562 121.203125 241.875 C 121.066406 240.5 121.019531 238.953125 121.101562 238.4375 C 121.183594 237.921875 120.621094 237.5 119.855469 237.5 C 119.011719 237.5 118.714844 238.839844 119.105469 240.890625 C 119.894531 245.011719 117.230469 247.421875 111.875 247.421875 C 108.308594 247.421875 108.242188 247.328125 110.550781 245.585938 C 111.886719 244.578125 112.375 243.75 111.640625 243.75 C 110.90625 243.75 109.605469 244.59375 108.75 245.625 C 106.800781 247.976562 99.128906 248.277344 100.832031 245.9375 C 102.617188 243.484375 102.804688 237.835938 101.132812 236.800781 C 100.210938 236.234375 99.9375 236.386719 100.433594 237.191406 C 100.953125 238.03125 100.300781 238.265625 98.644531 237.835938 C 96.664062 237.316406 96.4375 236.898438 97.707031 236.097656 C 100.597656 234.261719 97.925781 234.90625 91.875 237.5 C 85.734375 240.132812 78.910156 241.054688 82.5 238.765625 C 83.796875 237.941406 82.976562 237.796875 79.847656 238.296875 C 77.109375 238.738281 74.980469 238.476562 74.460938 237.636719 C 73.988281 236.875 70.832031 236.25 67.449219 236.25 C 60.746094 236.25 60.519531 236.53125 59.492188 246.25 C 59.238281 248.65625 58.964844 251.046875 58.890625 251.5625 C 58.8125 252.078125 58.058594 252.359375 57.21875 252.1875 C 55.460938 251.828125 54.417969 256.679688 55.59375 259.738281 C 56.027344 260.871094 56.554688 274.953125 56.765625 291.03125 C 57.074219 314.304688 57.503906 320.484375 58.886719 321.359375 C 59.917969 322.011719 60.042969 322.46875 59.195312 322.480469 C 56.84375 322.511719 56.089844 326.359375 57.5625 330.816406 C 58.742188 334.390625 59.519531 335 62.910156 335 C 66.335938 335 67.285156 334.234375 69.855469 329.390625 C 72.046875 325.261719 72.476562 323.351562 71.484375 322.160156 C 70.589844 321.082031 70.515625 318.878906 71.261719 315.582031 C 71.878906 312.855469 72.101562 309.492188 71.753906 308.105469 C 71.410156 306.714844 71.894531 303.75 72.835938 301.511719 C 74.40625 297.78125 74.527344 298.683594 74.273438 312.15625 C 73.886719 332.925781 73.933594 332.5 71.980469 332.5 C 71.007812 332.5 69.460938 334.1875 68.550781 336.25 C 67.191406 339.320312 66.09375 340.03125 62.507812 340.175781 L 58.125 340.355469 L 68.125 342.144531 L 63.230469 342.324219 C 55.074219 342.617188 59.339844 343.757812 72.914062 344.914062 C 73.484375 344.960938 73.558594 348.65625 73.078125 353.125 L 72.207031 361.25 L 76.417969 361.371094 C 83.089844 361.5625 90.570312 361.078125 91.246094 360.410156 C 91.589844 360.070312 90.746094 358.976562 89.371094 357.972656 C 83.128906 353.414062 81.25 351.074219 81.230469 347.820312 C 81.21875 345.339844 80.902344 344.863281 80.109375 346.121094 C 78.742188 348.273438 75 347.027344 75 344.414062 C 75 343.199219 76.257812 342.4375 78.4375 342.328125 C 81.78125 342.164062 81.789062 342.144531 78.75 341.644531 C 72.726562 340.648438 72.402344 340.335938 73.929688 336.980469 C 74.988281 334.652344 76.464844 333.785156 79.859375 333.503906 C 83.949219 333.160156 84.414062 332.738281 84.765625 329.0625 C 85.226562 324.3125 87.5 323.535156 87.5 328.125 C 87.5 330.417969 88.167969 331.25 90 331.25 C 91.375 331.25 92.5 330.6875 92.5 330 C 92.5 329.3125 91.796875 328.742188 90.9375 328.730469 C 89.894531 328.71875 90 328.308594 91.25 327.5 C 92.851562 326.464844 92.808594 326.285156 90.9375 326.269531 C 89.734375 326.257812 88.75 325.6875 88.75 325 C 88.75 324.3125 89.664062 323.75 90.777344 323.75 C 92.4375 323.75 92.523438 323.410156 91.25 321.875 C 90.304688 320.734375 90.203125 320 90.996094 320 C 92.660156 320 94.371094 312.449219 92.945312 311.40625 C 91.769531 310.546875 90.527344 278.75 91.671875 278.75 C 92.0625 278.75 93.457031 281.140625 94.773438 284.0625 C 96.089844 286.984375 98.929688 291.566406 101.085938 294.242188 C 103.746094 297.539062 104.625 299.570312 103.8125 300.546875 C 103.15625 301.339844 102.550781 303.089844 102.46875 304.433594 C 101.480469 320.941406 100.5625 330.625 99.992188 330.625 C 99.894531 330.625 99.578125 331.890625 99.289062 333.4375 C 98.976562 335.125 99.390625 336.253906 100.320312 336.265625 C 101.175781 336.269531 103.894531 336.609375 106.359375 337.019531 L 110.847656 337.761719 L 112.988281 330.132812 C 114.167969 325.933594 115.636719 322.5 116.257812 322.5 C 117.445312 322.5 119.980469 330.347656 119.992188 334.0625 C 119.996094 335.265625 120.519531 336.25 121.152344 336.25 C 123.425781 336.25 125.128906 344.484375 123.945312 349.761719 C 122.941406 354.222656 123.140625 355.164062 125.554688 357.433594 C 127.355469 359.125 130.015625 360.039062 133.21875 360.0625 C 166.203125 360.328125 173.75 360 173.75 358.3125 C 173.75 356.289062 170.734375 353.429688 169.699219 354.46875 C 169.3125 354.851562 169.03125 354.425781 169.074219 353.519531 C 169.269531 349.007812 168.660156 344.675781 167.925781 345.40625 C 167.476562 345.859375 166.308594 345.566406 165.332031 344.757812 C 163.953125 343.613281 163.308594 343.683594 162.421875 345.078125 C 161.589844 346.398438 161.285156 345.925781 161.269531 343.285156 C 161.253906 340.234375 161.53125 339.925781 163.125 341.25 C 164.671875 342.53125 165 342.421875 165 340.632812 C 165 339.046875 165.703125 338.640625 167.597656 339.136719 C 169.550781 339.648438 170.015625 339.347656 169.472656 337.929688 C 169.078125 336.894531 168.75 335.808594 168.75 335.523438 C 168.75 335.234375 167.90625 335 166.875 335 C 165.84375 335 165 334.402344 165 333.671875 C 165 332.929688 166.742188 332.515625 168.9375 332.734375 C 171.277344 332.964844 173.097656 332.488281 173.417969 331.5625 C 173.71875 330.6875 172.949219 329.992188 171.667969 329.980469 C 169.789062 329.964844 169.703125 329.753906 171.191406 328.8125 C 172.1875 328.179688 173.542969 327.996094 174.199219 328.402344 C 174.902344 328.835938 175.082031 327.949219 174.640625 326.253906 C 174.222656 324.667969 174.699219 321.792969 175.691406 319.871094 C 178.039062 315.332031 178.007812 315.136719 174.6875 313.722656 L 171.875 312.523438 L 174.882812 312.824219 C 179.339844 313.269531 179.257812 310.90625 174.734375 308.675781 C 170.433594 306.554688 168.679688 303.75 171.652344 303.75 C 172.898438 303.75 173.300781 302.921875 172.863281 301.25 C 172.398438 299.484375 172.824219 298.75 174.300781 298.75 C 175.453125 298.75 176.050781 299.3125 175.625 300 C 175.199219 300.691406 176.140625 301.265625 177.738281 301.289062 C 180.527344 301.324219 180.542969 301.375 178.125 302.742188 C 174.898438 304.574219 173.597656 306.597656 174.84375 307.84375 C 176.988281 309.988281 179.839844 307.136719 180.589844 302.089844 C 181.710938 294.558594 183.75 285.042969 185.328125 280 L 186.695312 275.625 L 188.25 284.375 C 189.105469 289.1875 189.847656 295.484375 189.902344 298.363281 C 189.953125 301.246094 190.539062 303.933594 191.195312 304.339844 C 191.851562 304.746094 192.046875 305.984375 191.621094 307.085938 C 190.988281 308.730469 191.5625 308.988281 194.800781 308.511719 C 199.535156 307.816406 200.097656 309.390625 195.523438 310.539062 C 192.5 311.296875 192.351562 311.679688 193.175781 316.609375 C 193.660156 319.507812 194.691406 322.289062 195.464844 322.792969 C 196.46875 323.449219 196.425781 323.71875 195.3125 323.730469 C 193.523438 323.753906 193.234375 329.746094 194.890625 332.371094 C 195.585938 333.460938 196.863281 333.777344 198.3125 333.214844 C 200.421875 332.398438 200.351562 332.167969 197.5 330.578125 C 195.78125 329.621094 194.953125 328.820312 195.660156 328.792969 C 196.367188 328.769531 198.253906 329.667969 199.859375 330.792969 C 204.734375 334.207031 205.390625 330.765625 203.121094 313.75 C 202.894531 312.03125 202.660156 309.640625 202.601562 308.4375 C 202.542969 307.117188 201.507812 306.25 200 306.25 C 198.625 306.25 197.5 305.765625 197.5 305.171875 C 197.5 304.582031 199 304.382812 200.828125 304.734375 C 203.574219 305.257812 204.015625 304.996094 203.34375 303.246094 C 202.859375 301.984375 203.03125 301.429688 203.765625 301.882812 C 204.445312 302.304688 205 301.457031 205 300 C 205 292.355469 209.980469 304.558594 210.609375 313.75 C 211.089844 320.738281 212.691406 330.335938 213.910156 333.546875 C 214.875 336.082031 215.53125 336.363281 218.457031 335.480469 C 220.335938 334.914062 224.183594 334.445312 227.007812 334.441406 C 233.472656 334.425781 234.6875 331.976562 234.945312 318.4375 C 235.089844 310.886719 234.746094 308.75 233.386719 308.75 C 232.421875 308.75 230.617188 307.625 229.375 306.25 C 227.796875 304.507812 227.609375 303.75 228.75 303.75 C 229.941406 303.75 229.824219 303.128906 228.320312 301.464844 C 227.179688 300.207031 226.25 298.578125 226.25 297.847656 C 226.25 297.113281 225.40625 296.195312 224.375 295.796875 C 221.964844 294.875 221.996094 293.183594 224.464844 290.714844 C 225.546875 289.632812 225.828125 288.75 225.089844 288.75 C 224.351562 288.75 223.75 288.125 223.75 287.359375 C 223.75 286.507812 225.285156 286.191406 227.691406 286.546875 C 230.722656 286.988281 231.230469 286.804688 229.878906 285.75 C 227.613281 283.976562 227.351562 278.773438 229.570312 279.625 C 233.5 281.132812 237.214844 295.453125 233.476562 294.6875 C 232.460938 294.480469 232.082031 295.785156 232.339844 298.609375 C 232.570312 301.144531 232.054688 303.269531 231.050781 303.921875 C 229.675781 304.804688 229.710938 305.21875 231.25 306.230469 C 233.808594 307.910156 235.824219 307.824219 234.109375 306.109375 C 233.085938 305.085938 233.15625 303.175781 234.359375 298.921875 C 235.265625 295.734375 236.367188 291 236.816406 288.402344 C 237.261719 285.804688 238.152344 284.007812 238.796875 284.40625 C 239.464844 284.816406 239.609375 284.183594 239.132812 282.941406 C 238.613281 281.59375 238.097656 281.328125 237.792969 282.25 C 236.996094 284.632812 233.996094 283.988281 233.125 281.25 C 232.6875 279.875 231.773438 278.75 231.09375 278.75 C 230.410156 278.75 230.171875 278.234375 230.558594 277.605469 C 230.949219 276.976562 230.558594 276.210938 229.695312 275.902344 C 228.832031 275.59375 228.539062 274.898438 229.042969 274.355469 C 229.546875 273.816406 231.445312 274.855469 233.257812 276.667969 C 236.546875 279.957031 238.75 280.070312 238.75 276.953125 C 238.75 276.046875 237.035156 274.59375 234.933594 273.722656 C 232.578125 272.746094 231.367188 271.492188 231.769531 270.445312 C 232.128906 269.515625 231.875 268.75 231.210938 268.75 C 228.773438 268.75 230.082031 266.40625 232.8125 265.882812 C 235.464844 265.371094 235.445312 265.328125 232.5 265.152344 C 230.78125 265.046875 228.53125 264.417969 227.5 263.75 C 225.964844 262.757812 226.105469 262.535156 228.269531 262.519531 C 231.601562 262.496094 237.5 257.945312 237.5 255.398438 C 237.5 253.976562 236.691406 253.679688 234.375 254.265625 C 230.890625 255.140625 230.132812 253.25 233.265625 251.496094 C 234.378906 250.875 235.476562 248.722656 235.710938 246.71875 C 236.128906 243.136719 236.042969 243.078125 230.878906 243.558594 C 227.988281 243.824219 225.183594 244.804688 224.648438 245.734375 C 223.839844 247.128906 222.925781 247.066406 219.390625 245.378906 C 217.035156 244.257812 215.398438 242.863281 215.757812 242.28125 C 216.117188 241.703125 216.074219 240.160156 215.65625 238.851562 C 214.996094 236.765625 214.351562 236.632812 210.339844 237.738281 C 206.53125 238.789062 205.515625 238.644531 204.21875 236.875 C 202.007812 233.847656 200 235.667969 200 240.699219 C 200 243.066406 199.703125 245 199.335938 245 C 197.667969 245 190.351562 241.144531 187.8125 238.929688 C 184.917969 236.402344 183.933594 234.191406 186.375 235.703125 C 187.339844 236.296875 187.328125 235.765625 186.332031 233.902344 C 184.652344 230.761719 183.921875 230.59375 182.953125 233.125 M 194.375 232.5 C 193.949219 233.1875 194.199219 233.75 194.925781 233.75 C 195.652344 233.75 196.25 233.1875 196.25 232.5 C 196.25 231.8125 196.003906 231.25 195.699219 231.25 C 195.394531 231.25 194.800781 231.8125 194.375 232.5 M 260.625 233.75 C 260.199219 234.4375 260.449219 235 261.175781 235 C 261.902344 235 262.5 235.84375 262.5 236.875 C 262.5 237.90625 263.0625 238.75 263.75 238.75 C 265.175781 238.75 265.339844 237.335938 264.242188 234.476562 C 263.378906 232.230469 261.765625 231.90625 260.625 233.75 M 257.886719 238.039062 C 256.261719 239.890625 256.976562 241.25 259.582031 241.25 C 260.5 241.25 261.25 240.125 261.25 238.75 C 261.25 235.871094 260.019531 235.609375 257.886719 238.039062 M 242.5 239.078125 C 240.78125 239.855469 239.175781 240.628906 238.929688 240.796875 C 238.683594 240.960938 240.039062 244.167969 241.9375 247.921875 C 245.09375 254.15625 245.742188 254.730469 249.488281 254.625 C 252.40625 254.542969 253.765625 253.824219 254.207031 252.132812 C 254.695312 250.269531 254.304688 249.890625 252.414062 250.382812 C 251.085938 250.730469 250 250.570312 250 250.027344 C 250 249.484375 248.921875 248.757812 247.601562 248.414062 C 245.570312 247.882812 245.304688 246.992188 245.890625 242.640625 C 246.269531 239.816406 246.363281 237.539062 246.101562 237.585938 C 245.839844 237.632812 244.21875 238.304688 242.5 239.078125 M 202.234375 246.277344 C 201.058594 248.347656 200.414062 250.871094 200.800781 251.886719 C 201.785156 254.445312 203.746094 252.941406 203.769531 249.613281 C 203.78125 247.636719 204.082031 247.339844 204.84375 248.542969 C 205.695312 249.886719 206.050781 249.824219 206.660156 248.230469 C 207.46875 246.128906 206.527344 242.496094 205.179688 242.507812 C 204.734375 242.511719 203.410156 244.207031 202.234375 246.277344 M 211.269531 246.96875 C 211.25 249.816406 216.96875 255.949219 218.351562 254.5625 C 219.75 253.167969 216.980469 246.875 214.96875 246.875 C 213.953125 246.875 212.710938 246.3125 212.207031 245.625 C 211.703125 244.9375 211.28125 245.542969 211.269531 246.96875 M 230 247.425781 C 230 250.445312 230.695312 250.75 231.6875 248.164062 C 232.074219 247.15625 231.851562 245.996094 231.195312 245.589844 C 230.539062 245.183594 230 246.011719 230 247.425781 M 67.5 247.367188 C 67.5 248.128906 68.34375 248.75 69.375 248.75 C 70.40625 248.75 71.242188 249.171875 71.230469 249.6875 C 71.199219 251.328125 69.136719 253.96875 67.984375 253.847656 C 66.058594 253.644531 62.167969 257.671875 63.296875 258.699219 C 63.890625 259.238281 66.734375 260.035156 69.621094 260.46875 C 73.792969 261.097656 75.113281 260.828125 76.046875 259.152344 C 77.152344 257.179688 77.359375 257.179688 79.328125 259.148438 C 81.878906 261.703125 83.007812 261.777344 84.878906 259.519531 C 86.726562 257.292969 83.5625 255.792969 77.8125 256.171875 C 75.578125 256.320312 73.75 255.835938 73.75 255.097656 C 73.75 254.355469 74.3125 253.75 75 253.75 C 75.6875 253.75 76.257812 252.765625 76.269531 251.5625 C 76.28125 250.132812 76.609375 249.878906 77.214844 250.832031 C 77.90625 251.917969 78.734375 251.851562 80.472656 250.582031 C 82.699219 248.953125 82.671875 248.847656 79.839844 248.296875 C 78.210938 247.980469 75.75 247.753906 74.375 247.792969 C 73 247.828125 70.890625 247.4375 69.6875 246.921875 C 68.355469 246.351562 67.5 246.523438 67.5 247.367188 M 116.390625 253.878906 C 115.558594 256.265625 114.523438 257.351562 113.613281 256.792969 C 112.179688 255.902344 103.320312 254.988281 104.144531 255.8125 C 104.382812 256.046875 107.257812 257.046875 110.535156 258.035156 C 113.8125 259.023438 116.167969 259.5 115.765625 259.101562 C 114.726562 258.058594 118.964844 255.085938 121.5625 255.039062 C 124.15625 254.992188 124.332031 254.109375 122.15625 252.097656 C 119.34375 249.492188 117.75 249.984375 116.390625 253.878906 M 193.75 251.289062 C 193.75 251.953125 194.59375 252.5 195.625 252.5 C 196.65625 252.5 197.5 252.277344 197.5 252.007812 C 197.5 251.738281 196.65625 251.195312 195.625 250.796875 C 194.59375 250.402344 193.75 250.625 193.75 251.289062 M 176.25 252.402344 C 176.25 253.140625 178.105469 253.75 180.375 253.75 C 182.644531 253.75 185.175781 254.308594 186.003906 254.996094 C 186.964844 255.789062 186.941406 255.609375 185.941406 254.496094 C 183.902344 252.226562 176.25 250.570312 176.25 252.402344 M 224.003906 252.316406 C 222.734375 253.121094 222.871094 253.722656 224.628906 255.070312 C 225.863281 256.015625 226.457031 256.300781 225.949219 255.699219 C 225.441406 255.097656 225.648438 253.851562 226.414062 252.925781 C 227.953125 251.074219 226.535156 250.710938 224.003906 252.316406 M 310.625 253.75 C 310.199219 254.4375 310.449219 255 311.175781 255 C 311.902344 255 312.5 254.4375 312.5 253.75 C 312.5 253.0625 312.253906 252.5 311.949219 252.5 C 311.644531 252.5 311.050781 253.0625 310.625 253.75 M 313.566406 254.0625 C 313.425781 255.398438 313.320312 256.742188 313.253906 258.082031 C 313.15625 259.972656 311.8125 260.796875 307.5 261.640625 C 304.40625 262.242188 300.890625 262.714844 299.6875 262.695312 C 298.484375 262.671875 297.5 263.183594 297.5 263.828125 C 297.5 265.199219 301.109375 265.3125 309.199219 264.203125 C 312.667969 263.730469 315 262.765625 315 261.808594 C 315 260.929688 315.703125 259.921875 316.5625 259.574219 C 317.753906 259.089844 317.699219 258.644531 316.328125 257.691406 C 314.84375 256.65625 314.816406 256.101562 316.171875 254.46875 C 317.546875 252.8125 317.484375 252.5 315.777344 252.5 C 314.664062 252.5 313.667969 253.203125 313.566406 254.0625 M 346.875 256.25 C 346.03125 257.613281 347.101562 260 348.554688 260 C 349.054688 260 349.464844 258.875 349.464844 257.5 C 349.464844 254.828125 348.144531 254.195312 346.875 256.25 M 127.5 257.5 C 127.5 258.1875 128.308594 258.75 129.300781 258.75 C 130.292969 258.75 131.449219 258.1875 131.875 257.5 C 132.300781 256.8125 131.488281 256.25 130.074219 256.25 C 128.660156 256.25 127.5 256.8125 127.5 257.5 M 187.953125 257.777344 C 187.625 258.3125 190.199219 258.75 193.675781 258.75 C 197.152344 258.75 200 258.328125 199.996094 257.8125 C 199.992188 256.5625 188.722656 256.53125 187.953125 257.777344 M 248.75 257.460938 C 248.75 258.125 249.59375 258.347656 250.625 257.953125 C 251.65625 257.554688 252.5 257.011719 252.5 256.742188 C 252.5 256.472656 251.65625 256.25 250.625 256.25 C 249.59375 256.25 248.75 256.796875 248.75 257.460938 M 268.121094 259.0625 C 268.714844 262.082031 268.414062 262.5 265.648438 262.5 C 263.917969 262.5 262.5 263.070312 262.5 263.765625 C 262.5 264.488281 264.113281 264.75 266.25 264.375 C 268.902344 263.90625 270 264.210938 270 265.414062 C 270 266.347656 271.019531 268.035156 272.265625 269.164062 C 274.015625 270.746094 274.875 270.875 276.015625 269.734375 C 278.410156 267.339844 277.75 265.289062 273.847656 262.984375 C 271.835938 261.796875 269.574219 259.65625 268.820312 258.226562 C 267.582031 255.882812 267.515625 255.964844 268.121094 259.0625 M 296.25 257.574219 C 296.25 258.300781 296.8125 258.550781 297.5 258.125 C 298.1875 257.699219 298.75 257.105469 298.75 256.800781 C 298.75 256.496094 298.1875 256.25 297.5 256.25 C 296.8125 256.25 296.25 256.847656 296.25 257.574219 M 101.355469 260.449219 C 101.640625 260.695312 104.125 261.242188 106.875 261.664062 C 110.28125 262.183594 111.277344 262.046875 110 261.234375 C 108.292969 260.144531 100.140625 259.402344 101.355469 260.449219 M 192.5 261.25 C 190.882812 262.292969 190.917969 262.464844 192.738281 262.480469 C 193.902344 262.492188 195.199219 261.9375 195.625 261.25 C 196.601562 259.667969 194.949219 259.667969 192.5 261.25 M 220 260.800781 C 220 261.472656 220.875 263.113281 221.945312 264.449219 C 223.777344 266.734375 223.800781 266.695312 222.398438 263.75 C 220.578125 259.921875 220 259.214844 220 260.800781 M 236.238281 261.890625 C 234.953125 263.4375 235.140625 263.75 237.347656 263.75 C 238.804688 263.75 240 263.222656 240 262.574219 C 240 260.410156 237.800781 260.007812 236.238281 261.890625 M 339.6875 260.894531 C 337.261719 261.261719 336.25 262.148438 336.25 263.90625 C 336.25 265.277344 336.8125 266.050781 337.5 265.625 C 338.1875 265.199219 338.75 265.449219 338.75 266.175781 C 338.75 266.902344 338.1875 267.5 337.5 267.5 C 336.8125 267.5 336.25 268.414062 336.25 269.527344 C 336.25 271.140625 336.613281 271.253906 338.03125 270.078125 C 339.011719 269.265625 340.804688 268.773438 342.011719 268.984375 C 343.460938 269.242188 344.515625 268.3125 345.105469 266.25 C 345.71875 264.113281 346.039062 263.839844 346.125 265.386719 C 346.195312 266.628906 346.789062 267.316406 347.445312 266.910156 C 349.378906 265.714844 347.445312 262.5 344.792969 262.5 C 343.449219 262.5 342.699219 261.9375 343.125 261.25 C 343.550781 260.5625 343.722656 260.082031 343.511719 260.1875 C 343.296875 260.289062 341.578125 260.609375 339.6875 260.894531 M 64.921875 263.828125 C 63.582031 264.671875 63.984375 264.964844 66.488281 264.980469 C 68.339844 264.992188 70.128906 264.554688 70.464844 264.011719 C 71.332031 262.605469 67.070312 262.464844 64.921875 263.828125 M 83.746094 264.53125 L 80.625 266.355469 L 83.75 265.519531 C 87.230469 264.59375 88.171875 264.003906 87.394531 263.226562 C 87.105469 262.941406 85.464844 263.527344 83.746094 264.53125 M 114.703125 263.382812 C 116.257812 263.683594 118.507812 263.671875 119.703125 263.359375 C 120.898438 263.046875 119.625 262.800781 116.875 262.816406 C 114.125 262.828125 113.148438 263.085938 114.703125 263.382812 M 106.449219 264.6875 C 106.558594 265.203125 106.253906 266.511719 105.773438 267.597656 C 104.621094 270.191406 106.972656 276.25 109.132812 276.25 C 110.0625 276.25 110.820312 277.234375 110.8125 278.4375 C 110.78125 285.976562 111.296875 287.5 113.886719 287.5 C 116.074219 287.5 116.386719 288.03125 115.734375 290.625 C 115.1875 292.808594 115.464844 293.75 116.648438 293.75 C 117.585938 293.75 118.992188 295.160156 119.777344 296.882812 L 121.203125 300.015625 L 116.699219 298.132812 C 113.027344 296.597656 112.460938 296.574219 113.640625 297.992188 C 114.4375 298.953125 117.179688 300.128906 119.734375 300.605469 C 122.285156 301.082031 125.050781 302.03125 125.878906 302.714844 C 127.953125 304.429688 132.457031 302.785156 132.699219 300.230469 C 133.25 294.351562 131.429688 284.742188 129.9375 285.664062 C 129.285156 286.066406 128.738281 288.191406 128.722656 290.386719 L 128.695312 294.375 L 126.222656 288.925781 C 123.1875 282.238281 123.183594 282.5 126.382812 282.5 C 128.210938 282.5 128.796875 281.925781 128.296875 280.625 C 127.894531 279.570312 128.265625 278.75 129.148438 278.75 C 131.121094 278.75 131.570312 274.09375 129.707031 272.945312 C 128.796875 272.382812 128.617188 272.847656 129.175781 274.308594 C 129.890625 276.175781 129.527344 276.402344 126.890625 275.738281 C 123.59375 274.914062 122.8125 276.0625 125.109375 278.359375 C 126.046875 279.296875 126.0625 279.96875 125.15625 280.527344 C 124.4375 280.972656 122.320312 279.625 120.453125 277.527344 C 118.089844 274.875 116.273438 273.910156 114.46875 274.347656 C 113.042969 274.695312 112.582031 274.652344 113.445312 274.257812 C 115.769531 273.191406 114.027344 271.234375 111.523438 272.097656 C 109.835938 272.675781 109.914062 272.40625 111.875 270.832031 C 114.074219 269.070312 114.117188 268.824219 112.226562 268.789062 C 110.742188 268.761719 110.324219 268.105469 110.875 266.671875 C 111.414062 265.269531 111.195312 264.886719 110.210938 265.492188 C 109.40625 265.992188 108.75 265.800781 108.75 265.074219 C 108.75 264.347656 108.1875 263.75 107.5 263.75 C 106.8125 263.75 106.339844 264.171875 106.449219 264.6875 M 159.765625 264.605469 C 160.667969 264.964844 161.746094 264.921875 162.160156 264.503906 C 162.578125 264.089844 161.839844 263.796875 160.519531 263.847656 C 159.066406 263.910156 158.769531 264.203125 159.765625 264.605469 M 153.4375 265.828125 C 154.296875 266.175781 155.703125 266.175781 156.5625 265.828125 C 157.421875 265.480469 156.71875 265.199219 155 265.199219 C 153.28125 265.199219 152.578125 265.480469 153.4375 265.828125 M 237.1875 265.828125 C 238.046875 266.175781 239.453125 266.175781 240.3125 265.828125 C 241.171875 265.480469 240.46875 265.199219 238.75 265.199219 C 237.03125 265.199219 236.328125 265.480469 237.1875 265.828125 M 196.875 268.171875 C 193.292969 269.8125 193.261719 269.890625 196.175781 269.945312 C 199.128906 270 199.148438 270.058594 196.800781 271.835938 C 195.46875 272.84375 194.9375 273.699219 195.625 273.730469 C 196.3125 273.761719 196.089844 274.285156 195.128906 274.890625 C 193.035156 276.21875 194.296875 280.441406 196.5625 279.695312 C 197.421875 279.410156 198.304688 277.957031 198.523438 276.464844 C 198.746094 274.972656 199.585938 273.75 200.398438 273.75 C 201.210938 273.75 201.875 272.0625 201.875 270 C 201.875 265.78125 201.992188 265.828125 196.875 268.171875 M 308.75 267.5 C 305.839844 268.429688 305.8125 268.511719 308.363281 268.625 C 309.871094 268.695312 311.449219 268.1875 311.875 267.5 C 312.300781 266.8125 312.472656 266.304688 312.261719 266.375 Z M 86.015625 268.355469 C 86.917969 268.714844 87.996094 268.671875 88.410156 268.253906 C 88.828125 267.839844 88.089844 267.546875 86.769531 267.597656 C 85.316406 267.660156 85.019531 267.953125 86.015625 268.355469 M 174.421875 268.824219 C 175.125 269.960938 174.648438 270.199219 172.695312 269.6875 C 170.832031 269.203125 170.289062 269.429688 170.933594 270.429688 C 171.449219 271.222656 171.925781 274.125 171.992188 276.875 C 172.367188 292.453125 172.613281 295 173.75 295 C 174.4375 295 175 294.15625 175 293.125 C 175 292.09375 175.550781 291.25 176.226562 291.25 C 176.898438 291.25 177.804688 289.84375 178.234375 288.125 C 178.667969 286.40625 179.382812 285 179.824219 284.996094 C 180.265625 284.992188 180.667969 283.023438 180.71875 280.621094 C 180.769531 278.21875 180.316406 276.25 179.707031 276.25 C 179.101562 276.25 178.949219 275.6875 179.375 275 C 179.800781 274.308594 178.859375 273.734375 177.261719 273.710938 C 174.53125 273.671875 174.5 273.578125 176.667969 271.933594 C 178.859375 270.269531 178.839844 270.136719 176.203125 268.726562 C 174.019531 267.554688 173.648438 267.578125 174.421875 268.824219 M 140 271.210938 C 140 271.875 140.84375 272.097656 141.875 271.703125 C 142.90625 271.304688 143.75 270.761719 143.75 270.492188 C 143.75 270.222656 142.90625 270 141.875 270 C 140.84375 270 140 270.546875 140 271.210938 M 223.203125 272.132812 C 222.527344 273.914062 222.671875 274.058594 223.90625 272.832031 C 224.761719 271.984375 225.144531 270.976562 224.757812 270.59375 C 224.375 270.207031 223.675781 270.902344 223.203125 272.132812 M 81.25 271.742188 C 81.25 272.011719 82.09375 272.554688 83.125 272.953125 C 84.15625 273.347656 85 273.125 85 272.460938 C 85 271.796875 84.15625 271.25 83.125 271.25 C 82.09375 271.25 81.25 271.472656 81.25 271.742188 M 358.773438 273.09375 C 357.789062 274.28125 357.695312 275 358.523438 275 C 360.035156 275 361.796875 272.628906 360.929688 271.761719 C 360.613281 271.449219 359.644531 272.046875 358.773438 273.09375 M 247.878906 274.625 C 249.648438 275.082031 249.824219 275.582031 248.691406 276.945312 C 247.507812 278.371094 247.996094 278.664062 251.4375 278.566406 C 253.738281 278.503906 256.1875 278.660156 256.875 278.914062 C 258.164062 279.390625 258.75 278.515625 258.75 276.117188 C 258.75 275.355469 257.90625 275.054688 256.875 275.453125 C 255.84375 275.847656 255 275.625 255 274.960938 C 255 274.296875 252.890625 273.816406 250.3125 273.894531 C 247.734375 273.976562 246.640625 274.300781 247.878906 274.625 M 272.5 275 C 271.375 275.726562 271.21875 276.21875 272.113281 276.230469 C 272.933594 276.242188 273.949219 275.6875 274.375 275 C 275.332031 273.449219 274.902344 273.449219 272.5 275 M 359.582031 277.707031 C 356.863281 280.675781 357.246094 281.410156 360.992188 280.429688 C 362.605469 280.007812 363.75 278.730469 363.75 277.355469 C 363.75 274.402344 362.519531 274.507812 359.582031 277.707031 M 40.695312 279.273438 C 42.03125 280.246094 43.386719 280.78125 43.710938 280.453125 C 44.398438 279.765625 41.175781 277.546875 39.449219 277.519531 C 38.800781 277.507812 39.363281 278.296875 40.695312 279.273438 M 154.128906 278.488281 C 153.210938 279.074219 152.886719 281.070312 153.292969 283.644531 C 153.886719 287.421875 153.691406 287.777344 151.351562 287.164062 C 149.921875 286.789062 148.75 286.992188 148.75 287.617188 C 148.75 288.238281 150.15625 288.75 151.875 288.75 C 153.59375 288.75 155 289.257812 155 289.878906 C 155 290.5 157.8125 291.203125 161.25 291.441406 C 167.265625 291.859375 169.527344 290.699219 165.625 289.203125 C 163.234375 288.285156 163.183594 286.25 165.550781 286.25 C 166.542969 286.25 167.722656 285.648438 168.175781 284.917969 C 168.628906 284.183594 168.242188 283.707031 167.3125 283.863281 C 164.621094 284.3125 161.25 282.394531 161.25 280.417969 C 161.25 279.417969 160.726562 278.925781 160.085938 279.320312 C 159.445312 279.714844 158.570312 279.46875 158.136719 278.769531 C 157.207031 277.265625 156.167969 277.195312 154.128906 278.488281 M 82.5 281.25 C 80.898438 282.285156 80.941406 282.464844 82.8125 282.480469 C 84.015625 282.492188 85 281.9375 85 281.25 C 85 279.726562 84.859375 279.726562 82.5 281.25 M 250 285 C 250 286.46875 250.960938 286.46875 254.375 285 C 256.589844 284.046875 256.484375 283.917969 253.4375 283.835938 C 251.546875 283.789062 250 284.3125 250 285 M 82.808594 287.246094 C 83.546875 288.140625 84.492188 288.421875 84.902344 287.871094 C 85.429688 287.210938 86.011719 286.609375 86.660156 286.066406 C 87.210938 285.617188 86.265625 285.335938 84.5625 285.441406 C 82.175781 285.582031 81.773438 285.996094 82.808594 287.246094 M 358.28125 286 C 357.769531 286.824219 357.683594 288.039062 358.089844 288.695312 C 358.972656 290.117188 362.5 288.996094 362.5 287.292969 C 362.5 286.636719 361.984375 286.421875 361.355469 286.808594 C 360.726562 287.199219 359.988281 286.835938 359.710938 286.007812 C 359.320312 284.835938 359 284.832031 358.28125 286 M 352.5 289.40625 C 354.21875 291.523438 354.171875 291.640625 351.945312 290.804688 C 349.539062 289.902344 349.539062 289.917969 351.945312 292.640625 L 354.375 295.390625 L 351.300781 294.621094 C 348.28125 293.859375 348.289062 293.898438 351.808594 296.921875 C 353.777344 298.617188 355.847656 300 356.40625 300 C 356.964844 300 357.050781 300.984375 356.601562 302.1875 C 355.859375 304.164062 356.015625 304.199219 358.203125 302.542969 C 359.535156 301.53125 360.789062 300.617188 360.992188 300.507812 C 361.195312 300.398438 361.636719 298.789062 361.972656 296.933594 C 362.503906 294.003906 362.207031 293.609375 359.730469 293.929688 C 355.996094 294.410156 352.832031 292.589844 355.035156 291.226562 C 356.140625 290.546875 355.726562 289.808594 353.605469 288.679688 C 350.792969 287.179688 350.730469 287.21875 352.5 289.40625 M 37.5 290.074219 C 37.5 290.800781 38.0625 291.050781 38.75 290.625 C 39.4375 290.199219 40 289.605469 40 289.300781 C 40 288.996094 39.4375 288.75 38.75 288.75 C 38.0625 288.75 37.5 289.347656 37.5 290.074219 M 240.3125 290.828125 C 238.523438 291.546875 238.1875 293.75 239.867188 293.75 C 240.480469 293.75 241.304688 292.90625 241.703125 291.875 C 242.097656 290.84375 242.296875 290.046875 242.148438 290.097656 C 241.996094 290.152344 241.171875 290.480469 240.3125 290.828125 M 360 291.25 C 360 291.9375 360.878906 292.5 361.949219 292.5 C 363.019531 292.5 363.550781 291.9375 363.125 291.25 C 362.699219 290.5625 361.824219 290 361.175781 290 C 360.527344 290 360 290.5625 360 291.25 M 61.25 292.972656 C 61.25 293.230469 62 294.066406 62.917969 294.828125 C 64.179688 295.875 64.582031 295.761719 64.582031 294.355469 C 64.582031 293.335938 63.832031 292.5 62.917969 292.5 C 62 292.5 61.25 292.710938 61.25 292.972656 M 156.867188 293.761719 C 155.550781 295.890625 157.441406 299.691406 160.167969 300.40625 C 161.589844 300.777344 162.378906 301.683594 161.925781 302.417969 C 160.550781 304.640625 162.433594 303.914062 165.363281 301.085938 L 168.125 298.425781 L 164.6875 299.234375 C 161.292969 300.039062 159.785156 298.300781 162.8125 297.078125 C 163.761719 296.695312 163.53125 296.410156 162.226562 296.347656 C 160.847656 296.285156 160.335938 295.578125 160.796875 294.375 C 161.613281 292.253906 158.136719 291.710938 156.867188 293.761719 M 83.125 297.5 C 82.699219 298.1875 82.949219 298.75 83.675781 298.75 C 84.402344 298.75 85 298.1875 85 297.5 C 85 296.8125 84.753906 296.25 84.449219 296.25 C 84.144531 296.25 83.550781 296.8125 83.125 297.5 M 37.507812 300.179688 C 37.503906 301.996094 38.34375 303.804688 39.375 304.203125 C 41.695312 305.09375 41.695312 304.890625 39.382812 300.453125 L 37.515625 296.875 Z M 40.285156 300.234375 C 40.910156 302.101562 43.75 303.132812 43.75 301.488281 C 43.75 300.816406 42.859375 299.925781 41.769531 299.507812 C 40.554688 299.042969 39.980469 299.320312 40.285156 300.234375 M 347.5 300 C 347.5 300.6875 348.0625 301.25 348.75 301.25 C 349.4375 301.25 350 300.6875 350 300 C 350 299.3125 349.4375 298.75 348.75 298.75 C 348.0625 298.75 347.5 299.3125 347.5 300 M 254.382812 301.234375 C 253.945312 301.945312 254.449219 302.152344 255.558594 301.726562 C 257.726562 300.894531 258.121094 300 256.324219 300 C 255.675781 300 254.804688 300.554688 254.382812 301.234375 M 48.171875 304.925781 C 47.757812 305.59375 46.453125 305.777344 45.273438 305.335938 C 43.394531 304.632812 43.339844 304.796875 44.839844 306.640625 C 46.953125 309.238281 49.496094 309.363281 50.4375 306.914062 C 51.246094 304.804688 49.300781 303.097656 48.171875 304.925781 M 221.875 305 C 222.300781 305.6875 223.175781 306.25 223.824219 306.25 C 224.472656 306.25 225 305.6875 225 305 C 225 304.3125 224.121094 303.75 223.050781 303.75 C 221.980469 303.75 221.449219 304.3125 221.875 305 M 346.25 306.65625 C 346.25 307.59375 347.277344 309.292969 348.535156 310.429688 C 351.035156 312.695312 356.25 313.246094 356.25 311.25 C 356.25 310.5625 354.5625 310 352.5 310 C 350.4375 310 348.75 309.4375 348.75 308.75 C 348.75 308.0625 349.96875 307.5 351.457031 307.5 C 354.832031 307.5 354.167969 306.851562 349.6875 305.777344 C 347.214844 305.183594 346.25 305.429688 346.25 306.65625 M 220.746094 307.988281 C 221.128906 308.988281 222.324219 310.144531 223.398438 310.558594 C 226.445312 311.726562 226.292969 310.839844 223.027344 308.398438 C 220.78125 306.71875 220.21875 306.617188 220.746094 307.988281 M 21.25 308.824219 C 21.25 309.550781 21.8125 309.800781 22.5 309.375 C 23.1875 308.949219 23.75 308.355469 23.75 308.050781 C 23.75 307.746094 23.1875 307.5 22.5 307.5 C 21.8125 307.5 21.25 308.097656 21.25 308.824219 M 254.765625 308.355469 C 255.667969 308.714844 256.746094 308.671875 257.160156 308.253906 C 257.578125 307.839844 256.839844 307.546875 255.519531 307.597656 C 254.066406 307.660156 253.769531 307.953125 254.765625 308.355469 M 81.25 310 C 83.671875 311.566406 85 311.566406 85 310 C 85 309.3125 83.734375 308.757812 82.1875 308.769531 C 79.914062 308.785156 79.734375 309.019531 81.25 310 M 62.070312 311.5625 C 62.386719 312.078125 63.738281 312.5 65.074219 312.5 C 66.410156 312.5 67.5 312.078125 67.5 311.5625 C 67.5 311.046875 66.148438 310.625 64.492188 310.625 C 62.839844 310.625 61.75 311.046875 62.070312 311.5625 M 131.449219 323.125 L 131.875 336.253906 L 127.8125 336.25 C 123.417969 336.25 122.664062 337.542969 125.625 340 C 126.707031 340.898438 127.5 341.019531 127.5 340.285156 C 127.5 339.589844 128.34375 338.695312 129.375 338.296875 C 132.386719 337.140625 131.558594 340.707031 128.4375 342.335938 C 125.679688 343.773438 125.6875 343.789062 128.859375 343.175781 C 130.765625 342.808594 133.078125 343.351562 134.484375 344.496094 C 135.800781 345.5625 136.171875 346.078125 135.3125 345.644531 C 134.453125 345.207031 133.75 345.195312 133.75 345.613281 C 133.75 346.898438 137.523438 353.75 138.230469 353.75 C 138.597656 353.75 138.582031 353.238281 138.195312 352.613281 C 137.195312 350.996094 138.789062 347.375 140.132812 348.207031 C 140.746094 348.585938 141.25 347.738281 141.25 346.324219 C 141.25 344.910156 140.476562 343.75 139.53125 343.75 C 137.324219 343.75 136.25 338.242188 136.25 326.90625 C 136.25 317.613281 134.453125 310 132.265625 310 C 131.492188 310 131.183594 314.984375 131.449219 323.125 M 162.792969 310.886719 C 161.238281 311.183594 160.285156 311.953125 160.679688 312.589844 C 161.074219 313.226562 159.710938 313.75 157.648438 313.75 C 155.585938 313.75 153.550781 313.1875 153.125 312.5 C 152.699219 311.8125 151.949219 311.25 151.457031 311.25 C 150.96875 311.25 153.378906 314.296875 156.8125 318.023438 C 163.128906 324.875 165 325.59375 165 321.175781 C 165 319.4375 164.136719 318.75 161.949219 318.75 C 158.960938 318.75 156.066406 316.402344 158.675781 316.09375 C 159.402344 316.007812 160.636719 315.867188 161.410156 315.78125 C 162.183594 315.695312 163.660156 314.359375 164.6875 312.8125 C 165.714844 311.265625 166.347656 310.078125 166.089844 310.171875 C 165.832031 310.265625 164.351562 310.585938 162.792969 310.886719 M 197.5 312.5 C 196.46875 313.167969 196.1875 313.710938 196.875 313.710938 C 197.5625 313.710938 198.96875 313.167969 200 312.5 C 201.03125 311.832031 201.3125 311.289062 200.625 311.289062 C 199.9375 311.289062 198.53125 311.832031 197.5 312.5 M 228.75 313.199219 C 228.75 313.453125 229.875 314.265625 231.25 315 C 232.632812 315.738281 233.75 315.824219 233.75 315.191406 C 233.75 314.558594 232.625 313.746094 231.25 313.386719 C 229.875 313.027344 228.75 312.941406 228.75 313.199219 M 34.507812 316.980469 C 34.042969 318.195312 34.320312 318.769531 35.234375 318.464844 C 37.101562 317.839844 38.132812 315 36.488281 315 C 35.816406 315 34.925781 315.890625 34.507812 316.980469 M 221.25 315.964844 C 221.25 316.496094 223.21875 317.992188 225.625 319.289062 C 228.03125 320.582031 230 322.117188 230 322.695312 C 230 324.28125 228.375 323.972656 225.277344 321.804688 C 223.75 320.734375 222.5 320.4375 222.5 321.148438 C 222.5 321.855469 224.066406 323.246094 225.976562 324.234375 C 229.3125 325.957031 229.542969 325.878906 231.589844 322.308594 C 233.632812 318.75 233.628906 318.621094 231.433594 319.316406 C 230.097656 319.742188 227.808594 318.996094 225.9375 317.523438 C 222.515625 314.832031 221.25 314.410156 221.25 315.964844 M 41.4375 318.253906 C 39.160156 320.832031 40.625 322.054688 43.066406 319.613281 C 44.128906 318.546875 45 317.359375 45 316.964844 C 45 315.652344 43.144531 316.324219 41.4375 318.253906 M 151.269531 318.171875 C 151.304688 320.320312 153.589844 323.078125 154.546875 322.121094 C 155.058594 321.609375 154.523438 320.238281 153.363281 319.078125 C 152.199219 317.914062 151.257812 317.507812 151.269531 318.171875 M 169.710938 318.960938 C 170.4375 319.6875 171.769531 320.035156 172.671875 319.734375 C 173.609375 319.421875 173.039062 318.855469 171.351562 318.414062 C 169.269531 317.871094 168.78125 318.03125 169.710938 318.960938 M 201.25 318.675781 C 201.25 319.769531 200.171875 320.027344 197.8125 319.492188 C 194.535156 318.75 194.488281 318.800781 196.820312 320.617188 C 198.980469 322.304688 199.476562 322.308594 201.117188 320.667969 C 202.140625 319.644531 202.585938 318.421875 202.113281 317.945312 C 201.640625 317.472656 201.25 317.800781 201.25 318.675781 M 152.179688 324.6875 C 151.921875 325.203125 153 326.855469 154.570312 328.355469 C 157.328125 330.992188 157.519531 331.007812 160.171875 328.863281 L 162.917969 326.640625 L 158.769531 325.195312 C 153.917969 323.503906 152.8125 323.417969 152.179688 324.6875 M 222.917969 329.363281 C 222.917969 330.457031 224.125 330.621094 227.183594 329.929688 C 233.042969 328.609375 233.160156 328.101562 227.628906 327.953125 C 224.675781 327.878906 222.917969 328.402344 222.917969 329.363281 M 160.328125 334.613281 C 161.488281 335.773438 162.859375 336.308594 163.371094 335.796875 C 163.882812 335.28125 163.476562 334.339844 162.464844 333.703125 C 159.421875 331.777344 158.070312 332.355469 160.328125 334.613281 M 247.894531 336.828125 C 248.128906 337.542969 249.683594 338.257812 251.347656 338.417969 C 254.074219 338.675781 254.125 338.601562 251.875 337.632812 C 249.527344 336.625 249.5625 336.523438 252.5 335.929688 C 254.9375 335.4375 254.726562 335.324219 251.546875 335.417969 C 249.304688 335.480469 247.660156 336.117188 247.894531 336.828125 M 351.25 336.183594 C 352.28125 336.886719 354.53125 337.539062 356.25 337.628906 C 359.15625 337.785156 359.113281 337.863281 355.625 338.75 L 351.875 339.703125 L 355.238281 339.851562 C 357.089844 339.933594 358.972656 339.398438 359.425781 338.667969 C 360.519531 336.898438 360.214844 336.722656 354.375 335.746094 C 350.792969 335.144531 349.90625 335.269531 351.25 336.183594 M 272.5 337.5 C 272.5 338.1875 273.371094 338.75 274.441406 338.75 C 275.839844 338.75 275.492188 339.574219 273.191406 341.707031 C 270.585938 344.121094 270 345.816406 270 350.949219 C 270 355.457031 270.546875 357.441406 271.925781 357.972656 C 274.8125 359.078125 307.207031 360.261719 310.042969 359.359375 C 312.105469 358.707031 312.5 357.445312 312.5 351.464844 C 312.5 345.59375 312.042969 344.066406 309.878906 342.714844 C 308.4375 341.8125 307.152344 341.257812 307.023438 341.476562 C 306.894531 341.695312 306.011719 343.421875 305.058594 345.3125 C 302.710938 349.96875 301.621094 349.636719 300.664062 343.976562 C 299.914062 339.539062 299.597656 339.242188 296.179688 339.742188 C 293.199219 340.179688 292.5 340.894531 292.5 343.503906 C 292.5 347.648438 287.519531 354.980469 284.695312 354.992188 C 282.101562 355 277.28125 345.527344 277.054688 339.980469 C 276.945312 337.308594 276.277344 336.25 274.703125 336.25 C 273.488281 336.25 272.5 336.8125 272.5 337.5 M 150.152344 338.066406 C 151.128906 339.046875 159.867188 339.300781 160.789062 338.378906 C 161.269531 337.894531 158.949219 337.5 155.625 337.5 C 152.300781 337.5 149.839844 337.753906 150.152344 338.066406 M 197.265625 338.355469 C 198.167969 338.714844 199.246094 338.671875 199.660156 338.253906 C 200.078125 337.839844 199.339844 337.546875 198.019531 337.597656 C 196.566406 337.660156 196.269531 337.953125 197.265625 338.355469 M 220 338.675781 C 216.441406 339.40625 216.046875 339.761719 217.890625 340.574219 C 219.1875 341.148438 221.492188 340.972656 223.265625 340.164062 C 227.105469 338.414062 230.410156 338.328125 229.375 340 C 228.949219 340.6875 229.246094 341.25 230.03125 341.25 C 230.816406 341.25 231.226562 340.546875 230.945312 339.6875 C 230.335938 337.832031 226.046875 337.433594 220 338.675781 M 36.273438 339.457031 C 38.347656 339.84375 39.722656 340.6875 39.324219 341.332031 C 38.925781 341.972656 39.246094 342.5 40.03125 342.5 C 43.351562 342.5 40.082031 339.347656 36.464844 339.0625 L 32.5 338.75 Z M 75.953125 339.632812 C 77.507812 339.933594 79.757812 339.921875 80.953125 339.609375 C 82.148438 339.296875 80.875 339.050781 78.125 339.066406 C 75.375 339.078125 74.398438 339.335938 75.953125 339.632812 M 101.25 341.25 L 98.125 342.25 L 101.460938 342.375 C 103.296875 342.445312 105.683594 342.839844 106.773438 343.257812 C 108.070312 343.757812 108.75 343.328125 108.75 342.007812 C 108.75 339.863281 106.34375 339.617188 101.25 341.25 M 150.410156 341.765625 C 149.519531 342.78125 149.21875 345.46875 149.640625 348.621094 C 150.398438 354.273438 152.492188 356.921875 152.515625 352.261719 C 152.519531 350.671875 152.875 347.265625 153.300781 344.6875 C 154.09375 339.890625 153.015625 338.796875 150.410156 341.765625 M 198.609375 342.761719 C 197.796875 344.28125 197.074219 348.640625 197.003906 352.449219 L 196.875 359.375 L 201.097656 359.777344 C 206.847656 360.328125 208.03125 358.765625 205.761719 353.621094 C 204.730469 351.285156 203.550781 347.265625 203.136719 344.6875 C 202.285156 339.371094 200.769531 338.726562 198.609375 342.761719 M 26.449219 342.582031 C 24.835938 343.226562 23.007812 343.4375 22.386719 343.054688 C 21.761719 342.667969 21.25 343.535156 21.25 344.984375 C 21.25 347.320312 21.894531 347.582031 26.996094 347.316406 C 31.378906 347.089844 32.320312 346.707031 30.949219 345.699219 C 29.960938 344.96875 29.390625 343.671875 29.683594 342.8125 C 30.285156 341.019531 30.335938 341.023438 26.449219 342.582031 M 248.367188 344.800781 C 248.019531 346.628906 247.332031 349.398438 246.839844 350.957031 C 246.089844 353.335938 246.324219 353.664062 248.285156 353.027344 C 250.21875 352.394531 250.296875 352.5 248.75 353.613281 C 247.71875 354.355469 245.890625 354.96875 244.6875 354.980469 C 243.484375 354.992188 242.5 355.84375 242.5 356.875 C 242.5 358.335938 244.171875 358.75 250.0625 358.75 L 257.625 358.75 L 257.25 351.761719 C 256.898438 345.25 256.609375 344.664062 252.9375 343.125 C 249.136719 341.535156 248.980469 341.59375 248.367188 344.800781 M 217.921875 346.902344 C 216.742188 349.441406 216.828125 350.398438 218.363281 351.9375 C 219.410156 352.980469 221.28125 353.511719 222.527344 353.117188 C 223.769531 352.722656 225.183594 353.035156 225.664062 353.8125 C 226.261719 354.777344 225.199219 355.132812 222.332031 354.933594 C 215.65625 354.460938 213.75 354.875 213.75 356.785156 C 213.75 358.726562 225.894531 360.882812 229.355469 359.554688 C 231.953125 358.558594 231.75 356.253906 229.0625 356.230469 C 227.191406 356.214844 227.148438 356.035156 228.75 355 C 230 354.191406 230.105469 353.78125 229.0625 353.769531 C 228.203125 353.757812 227.507812 352.765625 227.519531 351.5625 C 227.535156 349.691406 227.714844 349.648438 228.75 351.25 C 229.652344 352.644531 229.964844 351.921875 229.980469 348.4375 C 230 343.75 230 343.75 224.6875 343.761719 C 220.242188 343.765625 219.136719 344.28125 217.921875 346.902344 M 348.75 346.25 C 348.015625 347.625 347.839844 348.75 348.359375 348.75 C 348.878906 348.75 348.046875 349.632812 346.507812 350.710938 C 344.96875 351.789062 344 353.144531 344.359375 353.726562 C 344.71875 354.304688 342.757812 355.160156 340.003906 355.625 C 337.09375 356.117188 335 357.167969 335 358.136719 C 335 359.351562 338.460938 360.0625 347.8125 360.765625 C 364.59375 362.035156 366.6875 361.664062 363.617188 357.960938 C 362.660156 356.808594 362.007812 355.53125 362.171875 355.121094 C 362.335938 354.710938 362.246094 353.53125 361.976562 352.5 C 361.703125 351.46875 361.136719 349.078125 360.71875 347.1875 C 360.042969 344.148438 359.382812 343.75 355.019531 343.75 C 351.367188 343.75 349.742188 344.398438 348.75 346.25 M 58.792969 349.835938 C 58.078125 352.496094 56.367188 356.101562 54.996094 357.847656 C 50.960938 362.972656 51.703125 364.199219 58.300781 363.296875 C 61.488281 362.859375 64.941406 362.5 65.972656 362.5 C 67.511719 362.5 67.722656 361.121094 67.152344 354.824219 C 66.488281 347.519531 65.101562 345.0625 61.609375 345.019531 C 60.777344 345.007812 59.511719 347.175781 58.792969 349.835938 M 101.832031 345.957031 C 100.199219 347.117188 100.308594 348.644531 102.277344 352.1875 C 103.136719 353.734375 103.300781 355 102.648438 355 C 101.992188 355 101.210938 354.296875 100.910156 353.4375 C 100.519531 352.3125 99.613281 352.542969 97.683594 354.257812 C 92.164062 359.15625 94.761719 361.25 106.351562 361.25 C 112.09375 361.25 113.75 360.828125 113.75 359.375 C 113.75 357.976562 112.265625 357.5 107.886719 357.5 C 102.53125 357.5 102.230469 357.347656 104.433594 355.734375 C 105.761719 354.765625 107.417969 354.3125 108.109375 354.726562 C 108.804688 355.140625 108.703125 354.648438 107.882812 353.636719 C 107.0625 352.621094 106.5625 350.683594 106.769531 349.332031 C 107.101562 347.175781 105.597656 345.039062 103.75 345.039062 C 103.40625 345.039062 102.542969 345.453125 101.832031 345.957031 M 37.792969 349.304688 C 37.667969 350.832031 38.25 352.109375 39.09375 352.140625 C 39.9375 352.175781 41.609375 352.609375 42.8125 353.109375 C 45.335938 354.15625 45.597656 352.742188 43.398438 349.921875 C 40.75 346.527344 38.046875 346.230469 37.792969 349.304688 M 198.230469 348.582031 C 197.691406 349.453125 197.585938 350.503906 198 350.917969 C 199.117188 352.035156 200.339844 350.390625 199.734375 348.578125 C 199.3125 347.308594 199.015625 347.308594 198.230469 348.582031 M 23.734375 353.4375 C 23.722656 356.015625 23.398438 359.304688 23.011719 360.746094 C 22.339844 363.246094 22.882812 363.40625 34.417969 364.09375 C 47.816406 364.890625 48.785156 364.734375 50.890625 361.363281 C 52.027344 359.542969 51.976562 358.511719 50.65625 356.703125 C 49.234375 354.761719 47.453125 354.425781 39.597656 354.640625 C 30.335938 354.890625 30.234375 354.859375 30.570312 351.820312 C 30.859375 349.195312 30.386719 348.75 27.328125 348.75 C 24.03125 348.75 23.75 349.117188 23.734375 353.4375 M 155.335938 352.117188 C 156.550781 352.433594 158.238281 352.414062 159.085938 352.070312 C 159.933594 351.726562 158.9375 351.46875 156.875 351.492188 C 154.8125 351.519531 154.121094 351.796875 155.335938 352.117188 M 133.75 355 C 133.75 355.6875 135.015625 356.242188 136.5625 356.230469 C 138.835938 356.214844 139.015625 355.980469 137.5 355 C 135.078125 353.433594 133.75 353.433594 133.75 355 M 199.765625 354.605469 C 200.667969 354.964844 201.746094 354.921875 202.160156 354.503906 C 202.578125 354.089844 201.839844 353.796875 200.519531 353.847656 C 199.066406 353.910156 198.769531 354.203125 199.765625 354.605469 M 355.3125 354.648438 C 352.394531 355.695312 353.734375 357.140625 357.496094 357.007812 C 359.558594 356.933594 361.246094 356.753906 361.246094 356.605469 C 361.257812 355.714844 356.613281 354.183594 355.3125 354.648438 M 129.765625 357.105469 C 130.667969 357.464844 131.746094 357.421875 132.160156 357.003906 C 132.578125 356.589844 131.839844 356.296875 130.519531 356.347656 C 129.066406 356.410156 128.769531 356.703125 129.765625 357.105469 " fill-opacity="1" fill-rule="evenodd"/></svg>