<svg xmlns="http://www.w3.org/2000/svg" xmlns:xlink="http://www.w3.org/1999/xlink" width="500" zoomAndPan="magnify" viewBox="0 0 375 374.999991" height="500" preserveAspectRatio="xMidYMid meet" version="1.0"><defs><g/></defs><rect x="-37.5" width="450" fill="#ffffff" y="-37.499999" height="449.999989" fill-opacity="1"/><rect x="-37.5" width="450" fill="#000000" y="-37.499999" height="449.999989" fill-opacity="1"/><g fill="#ffffff" fill-opacity="1"><g transform="translate(34.304933, 245.158004)"><g><path d="M 156.828125 -17.40625 C 156.828125 -11.945312 157.175781 -7.925781 157.875 -5.34375 C 158.582031 -2.757812 159.492188 -0.976562 160.609375 0 L 105.890625 0 C 107.003906 -0.976562 107.875 -2.757812 108.5 -5.34375 C 109.132812 -7.925781 109.453125 -11.945312 109.453125 -17.40625 L 109.453125 -145.09375 L 59.34375 -1.265625 L 4.828125 -145.296875 L 4.828125 -64.78125 C 4.828125 -55 5.910156 -45.84375 8.078125 -37.3125 C 10.242188 -28.789062 13.003906 -21.3125 16.359375 -14.875 C 19.710938 -8.445312 23.273438 -3.488281 27.046875 0 L 4.1875 0 L 4.1875 -146.765625 L 53.671875 -146.765625 L 82.828125 -70.65625 L 109.453125 -146.765625 L 160.609375 -146.765625 C 159.492188 -145.785156 158.582031 -144.003906 157.875 -141.421875 C 157.175781 -138.835938 156.828125 -134.820312 156.828125 -129.375 Z M 156.828125 -17.40625 "/></g></g></g><g fill="#ffffff" fill-opacity="1"><g transform="translate(199.101886, 245.158004)"><g><path d="M 82.40625 0 C 83.519531 -0.976562 84.425781 -2.757812 85.125 -5.34375 C 85.820312 -7.925781 86.171875 -11.945312 86.171875 -17.40625 L 86.171875 -72.96875 L 55.359375 -72.96875 L 55.359375 -17.40625 C 55.359375 -11.945312 55.671875 -7.925781 56.296875 -5.34375 C 56.921875 -2.757812 57.863281 -0.976562 59.125 0 L 4.1875 0 C 5.3125 -0.976562 6.222656 -2.757812 6.921875 -5.34375 C 7.617188 -7.925781 7.96875 -11.945312 7.96875 -17.40625 L 7.96875 -129.375 C 7.96875 -134.820312 7.617188 -138.835938 6.921875 -141.421875 C 6.222656 -144.003906 5.3125 -145.785156 4.1875 -146.765625 L 59.125 -146.765625 C 57.863281 -145.785156 56.921875 -144.003906 56.296875 -141.421875 C 55.671875 -138.835938 55.359375 -134.820312 55.359375 -129.375 L 55.359375 -73.796875 L 86.171875 -73.796875 L 86.171875 -129.375 C 86.171875 -134.820312 85.820312 -138.835938 85.125 -141.421875 C 84.425781 -144.003906 83.519531 -145.785156 82.40625 -146.765625 L 137.328125 -146.765625 C 136.210938 -145.785156 135.304688 -144.003906 134.609375 -141.421875 C 133.910156 -138.835938 133.5625 -134.820312 133.5625 -129.375 L 133.5625 -17.40625 C 133.5625 -11.945312 133.910156 -7.925781 134.609375 -5.34375 C 135.304688 -2.757812 136.210938 -0.976562 137.328125 0 Z M 82.40625 0 "/></g></g></g></svg>